<svg xmlns="http://www.w3.org/2000/svg" viewBox="0 0 1061.8 668.2">
<path d="M439.3 305c12.2 5.7 24.9 9.4 36.7 15.5 42.9 22.1 67 58.1 77.9 103.8 8.2 34.3 8.4 68.7-.7 102.9-13 48.9-43.3 84-87.1 107.8-39 21.2-81.3 31.5-125.3 31.9-110.3.9-220.5.5-330.8.6-9.7 0-9.7-.2-9.7-12.5V12.8c0-1.2.2-2.5 0-3.6C-1 1.4 2.8 0 9.9 0 119 .4 228 0 337.1.9c37.2.3 73.9 5.9 108.3 21.7 49.2 22.5 74.7 61.7 81.1 114.7 3.1 25.2 2.2 50-4.3 74.4-10.1 38.1-35 64.6-68.1 84.3-4.9 2.8-10.5 4.4-14.8 9zm-197.4 66.4v-.7c-28.3 0-56.6.2-84.8-.2-7.4-.1-9.6 2-9.6 9.5.3 54.5.1 109.1.2 163.6 0 9.6.2 9.7 10.1 9.7 51.3 0 102.6-.1 153.9-.1 16.3 0 32.3-2.5 47.5-7.9 27.2-9.7 45.7-27.7 51.6-57.2 2.7-13.7 2.4-27.5.9-41-3.1-27.5-14.9-50.1-41-62.9-15-7.4-30.7-12.4-47.5-12.7-27.2-.4-54.2-.1-81.3-.1zm-9-101.5v-.3c24.6 0 49.3.5 73.9-.2 21-.6 40.9-6.6 56.7-20.9 21.6-19.5 24.1-45.1 20.9-72.3-3.3-28.1-20-44.8-45.2-54.3-12.5-4.7-25.7-7.1-39-7.2-48-.5-96.1-.2-144.1-.5-5.9 0-8.5 1.2-8.5 7.9.3 46.4.3 92.8 0 139.2 0 7.1 2.5 8.7 9.1 8.6 25.3-.1 50.7 0 76.2 0zm819.3 235.7c-9 29.6-21.5 55.9-38.9 79.9-31 42.8-74.5 66.2-125 76.2-53.4 10.5-106.8 9.1-158.6-9.7-58.7-21.3-100.4-61.1-126.3-117.9-20.9-46-27.3-94.5-23.3-144.1 5.2-64.8 28.6-122.2 77.3-167.1 41.5-38.2 90.7-58.8 147.1-62.8 32.9-2.3 65.2.1 96.7 9.9 46.4 14.4 83.3 42.1 110.9 81.7 39.1 56.2 51.6 119.8 49.5 187.1-.2 5.6-1.8 8.3-7.7 7.7-2.8-.3-5.6 0-8.5 0H728c-2.8 0-5.7.2-8.5 0-5.1-.4-7.3 1.2-6.8 6.8 2.1 23.8 5.9 47.2 18 68.4 11.4 19.9 28.8 32.7 50.3 39.3 33.2 10.2 66.7 11.7 99.4-2.1 22.8-9.6 41.9-24.1 52.7-47.4 1.8-3.8 3.7-5.8 8-5.8 36.7-.1 73.3-.1 111.1-.1zM927.3 361.8c-2-15.6-6.2-29.5-11.9-42.8-9.7-22.9-23.6-42.3-47.8-51.9-16.4-6.5-33.6-7.5-51-7.5-52.1-.1-94.7 34.9-103.3 91.3-1.6 10.5-1.3 10.9 9.3 10.9h204.7zM824.4 109.1H699.7c-10.6 0-10.7-.1-10.7-10.5-.1-19 .1-38-.1-56.9-.1-5.7 1.7-8.3 7.6-7.7 2.4.2 4.8 0 7.3 0h241c2.8 0 5.7.1 8.5 0 4.5-.2 6.6 1.4 6.6 6.2-.2 21-.1 42 0 63 0 4-1.6 6-5.7 5.8-2.8-.1-5.7 0-8.5 0-40.6.1-80.9.1-121.3.1z" fill="#fff"/>
</svg>