<svg id="Layer_1" xmlns="http://www.w3.org/2000/svg" viewBox="0 0 1080 1080"><style>.st0{fill:#fff}</style><path class="st0" d="M881.2 932.1H197.6c-45.5 0-82.5-37-82.5-82.5V294.9c0-45.5 37-82.5 82.5-82.5h86.9c9.2 0 16.6 7.4 16.6 16.6s-7.4 16.6-16.6 16.6h-86.9c-27.2 0-49.3 22.1-49.3 49.3v554.7c0 27.2 22.1 49.3 49.3 49.3h683.6c27.2 0 49.3-22.1 49.3-49.3V294.9c0-27.2-22.1-49.3-49.3-49.3h-85.3c-9.2 0-16.6-7.4-16.6-16.6s7.4-16.6 16.6-16.6h85.3c45.5 0 82.5 37 82.5 82.5v554.7c0 45.5-37 82.5-82.5 82.5z"/><path class="st0" d="M679.1 245.6H399.7c-9.2 0-16.6-7.4-16.6-16.6s7.4-16.6 16.6-16.6h279.4c9.2 0 16.6 7.4 16.6 16.6s-7.4 16.6-16.6 16.6zm269.2 224.7H148.5c-9.2 0-16.6-7.4-16.6-16.6s7.4-16.6 16.6-16.6h799.8c9.2 0 16.6 7.4 16.6 16.6s-7.5 16.6-16.6 16.6zm-606.1-69.6c-32.4 0-58.7-26.3-58.7-58.7s26.3-58.7 58.7-58.7 58.7 26.3 58.7 58.7-26.3 58.7-58.7 58.7zm0-84.2c-14.1 0-25.5 11.4-25.5 25.5s11.4 25.5 25.5 25.5 25.5-11.4 25.5-25.5c0-14-11.4-25.5-25.5-25.5zm394.4 84.2c-32.4 0-58.7-26.3-58.7-58.7s26.3-58.7 58.7-58.7c32.4 0 58.7 26.3 58.7 58.7s-26.3 58.7-58.7 58.7zm0-84.2c-14.1 0-25.5 11.4-25.5 25.5s11.4 25.5 25.5 25.5 25.5-11.4 25.5-25.5c.1-14-11.4-25.5-25.5-25.5z"/><path class="st0" d="M342.2 316.5c-9.2 0-16.6-7.4-16.6-16.6V164.5c0-9.2 7.4-16.6 16.6-16.6 9.2 0 16.6 7.4 16.6 16.6v135.4c0 9.2-7.4 16.6-16.6 16.6zm394.4 0c-9.2 0-16.6-7.4-16.6-16.6V164.5c0-9.2 7.4-16.6 16.6-16.6 9.2 0 16.6 7.4 16.6 16.6v135.4c0 9.2-7.4 16.6-16.6 16.6z"/></svg>