<svg xmlns="http://www.w3.org/2000/svg" viewBox="0 0 242 242"><style>.st0,.st1{fill:none;stroke:#282929;stroke-width:5.5861;stroke-linecap:round;stroke-linejoin:round;stroke-miterlimit:10}.st1{stroke:#48b7b6;stroke-width:3.2308}</style><g id="Filament"><path class="st0" d="M73.94 210.12h94.12v11.01H73.94zm26.61-28.74h40.9v28.74h-40.9zm63.07-123.63h41.77c10.38 0 18.8 8.42 18.8 18.8v86.03c0 10.38-8.42 18.8-18.8 18.8H36.61c-10.38 0-18.8-8.42-18.8-18.8V76.55c0-10.38 8.42-18.8 18.8-18.8h44.37M17.81 159.59h206.38m-61.38-72.54V39.64"/><path class="st0" d="M80.98 113.36v28.04h81.83v-15.99M99.76 20.87h70.7c10.37 0 18.78 8.41 18.78 18.78h-70.7c-.01-10.38-8.41-18.78-18.78-18.78s-18.78 8.41-18.78 18.78v43.93"/><path class="st1" d="M131.75 113.47l8.34-7.65 7.42 6.84 15.3-16.34 19.47 20.75 11.59-9.97"/><path class="st0" d="M131.75 87.05h62.12v37.55h-62.12z"/><circle class="st1" cx="180.72" cy="97.42" r="3.19"/><circle class="st0" cx="65.14" cy="99.26" r="21.23"/><path class="st1" d="M62.09 90.89v16.74l10.43-8.37z"/></g></svg>