<svg id="Layer_1" xmlns="http://www.w3.org/2000/svg" viewBox="0 0 1080 713.1"><style>.st0{fill:#fff}</style><path class="st0" d="M1039.4 645.4H40.6c-9.2 0-16.6-7.4-16.6-16.6V84.3c0-9.2 7.4-16.6 16.6-16.6h998.9c9.2 0 16.6 7.4 16.6 16.6v544.4c-.1 9.2-7.5 16.7-16.7 16.7zM57.1 612.2h965.7V100.9H57.1v511.3z"/><path class="st0" d="M540 422c-3.1 0-6.2-.9-9-2.6L31.6 98.3c-7.7-4.9-9.9-15.2-5-22.9 4.9-7.7 15.2-9.9 22.9-5L540 385.7l490.5-315.3c7.7-5 18-2.7 22.9 5 4.9 7.7 2.7 18-5 22.9L549 419.4c-2.8 1.7-5.9 2.6-9 2.6z"/><path class="st0" d="M1039.4 645.4c-3.1 0-6.2-.8-8.9-2.6L607 370.5c-7.7-4.9-9.9-15.2-5-22.9 4.9-7.7 15.2-9.9 22.9-5l423.5 272.2c7.7 4.9 9.9 15.2 5 22.9-3.2 5-8.5 7.7-14 7.7zm-998.8 0c-5.5 0-10.8-2.7-14-7.6-4.9-7.7-2.7-18 5-22.9l423.5-272.2c7.7-5 18-2.7 22.9 5 4.9 7.7 2.7 18-5 22.9L49.5 642.7c-2.8 1.8-5.9 2.7-8.9 2.7z"/></svg>