<?xml version="1.0" encoding="utf-8"?>
<!-- Generator: Adobe Illustrator 21.0.0, SVG Export Plug-In . SVG Version: 6.00 Build 0)  -->
<svg version="1.1" id="Layer_1" xmlns="http://www.w3.org/2000/svg" xmlns:xlink="http://www.w3.org/1999/xlink" x="0px" y="0px"
	 width="938.4px" height="671.1px" viewBox="0 0 938.4 671.1" style="enable-background:new 0 0 938.4 671.1;" xml:space="preserve"
	>
<style type="text/css">
	.st0{fill:#FFFFFF;}
	.st1{fill:#4AB8B6;}
	.st2{fill:none;stroke:#FFFFFF;stroke-width:24.6241;stroke-linecap:round;stroke-linejoin:round;stroke-miterlimit:10;}
</style>
<g>
	<g>
		<path class="st0" d="M469.2,566.1c-93.5,0-169.6-76.1-169.6-169.6c0-93.6,76.1-169.6,169.6-169.6s169.6,76,169.6,169.6
			C638.8,490,562.7,566.1,469.2,566.1z M469.2,251.5c-80,0-145,65.1-145,145c0,80,65.1,145,145,145s145-65.1,145-145
			C614.2,316.5,549.2,251.5,469.2,251.5z"/>
	</g>
	<g>
		<path class="st1" d="M438.3,481.8c-1.8,0-3.6-0.4-5.3-1.2c-4.3-2-7-6.4-7-11.1v-146c0-4.7,2.7-9.1,7-11.1s9.3-1.5,13,1.5l90.9,73
			c2.9,2.3,4.6,5.9,4.6,9.6c0,3.7-1.7,7.3-4.6,9.6l-90.9,73C443.7,480.8,441,481.8,438.3,481.8z M450.6,349.2v94.6l58.9-47.3
			L450.6,349.2z"/>
	</g>
	<g>
		<path class="st2" d="M59.8,407.8"/>
	</g>
	<path class="st0" d="M935.8,388.9c-2.1-2.7-51.2-65-131.2-129.4l73-73c4.8-4.8,4.8-12.6,0-17.4s-12.6-4.8-17.4,0l-75.1,75.1
		c-36.6-27.7-81.3-56.5-131.6-79.3L696.9,60c2.6-6.3-0.4-13.5-6.7-16.1s-13.5,0.4-16.1,6.7l-43.3,104.6
		c-46.2-18.5-96.5-31.1-149.2-32.9v-110c0-6.8-5.5-12.3-12.3-12.3S457,5.5,457,12.3v110.1c-52.7,1.7-103,14.4-149.2,32.9L264.5,50.7
		c-2.6-6.3-9.8-9.2-16.1-6.7c-6.3,2.6-9.3,9.8-6.7,16.1L285.1,165c-50.3,22.8-95,51.7-131.6,79.3l-75.1-75.1
		c-4.8-4.8-12.6-4.8-17.4,0c-4.8,4.8-4.8,12.6,0,17.4l73,73C53.8,323.9,4.7,386.3,2.6,388.9c-3.5,4.5-3.5,10.7,0,15.2
		c2.1,2.7,53,67.5,135.9,133.2c77,61,196.8,133.8,330.7,133.8s253.7-72.7,330.7-133.8c82.9-65.7,133.7-130.4,135.9-133.2
		C939.2,399.6,939.2,393.4,935.8,388.9z M469.2,646.4c-219.4,0-405.1-207.3-440.9-249.9c35.8-42.6,221.4-249.9,440.9-249.9
		c219.4,0,405.1,207.3,440.9,249.9C874.3,439.1,688.8,646.4,469.2,646.4z"/>
</g>
</svg>
