<?xml version="1.0" encoding="utf-8"?>
<!-- Generator: Adobe Illustrator 21.0.0, SVG Export Plug-In . SVG Version: 6.00 Build 0)  -->
<svg version="1.1" id="Layer_1" xmlns="http://www.w3.org/2000/svg" xmlns:xlink="http://www.w3.org/1999/xlink" x="0px" y="0px"
	 width="997px" height="979.1px" viewBox="0 0 997 979.1" style="enable-background:new 0 0 997 979.1;" xml:space="preserve">
<style type="text/css">
	.st0{fill:#48B6B5;}
	.st1{fill:#FFFFFF;}
</style>
<g>
	<g>
		<path class="st0" d="M464.6,863.2c-38,0-73.6-19.7-95.9-56c-28.3-45.9-58.8-49.6-88.4-53.1c-32.4-3.9-65.8-7.8-80.5-66.5
			c-7.5-29.8,0.5-62.7,22-90.1c27.6-35.4,71.8-56.6,118.2-56.6c6.8,0,12.3,5.5,12.3,12.3s-5.5,12.3-12.3,12.3
			c-38.3,0-76.1,18-98.8,47.1c-17,21.8-23.2,46.3-17.5,69c10.6,42.2,29,44.4,59.6,48.1c32.1,3.8,72,8.6,106.5,64.6
			c30.6,49.7,81.8,52.4,118.9,33.1c47.1-24.5,81.2-89,45-172.4c-2.7-6.2,0.1-13.5,6.4-16.2c6.2-2.7,13.5,0.2,16.2,6.4
			c42.5,97.9,0.7,174.4-56.1,204C501.7,858.7,482.9,863.2,464.6,863.2z"/>
	</g>
	<g>
		<path class="st0" d="M33.1,503.1c-3.7,0-7.5-1.7-9.9-4.9c-4.1-5.4-3-13.2,2.5-17.2c75.3-56.3,122.6-42.2,168.4-28.6
			c20.6,6.1,41.9,12.5,66.3,12.5c30.4,0,52.2-7.6,64.8-22.7c14.7-17.5,18.6-46.8,11.6-86.9c-16.2-91.9,68.8-160.3,72.4-163.1
			c5.3-4.2,13.1-3.3,17.3,2c4.2,5.3,3.3,13.1-2,17.3c-0.8,0.6-77,62.2-63.4,139.6c8.4,47.6,2.7,83.6-17,107
			c-17.5,20.9-45.7,31.4-83.7,31.4c-28.1,0-51.1-6.8-73.3-13.5c-43.6-13-81.2-24.2-146.6,24.7C38.2,502.3,35.6,503.1,33.1,503.1z"/>
	</g>
	<g>
		<path class="st1" d="M396.1,979.1C177.7,979.1,0,801.4,0,583s177.7-396.1,396.1-396.1c72.1,0,142.6,19.6,204,56.5
			c5.8,3.5,7.7,11.1,4.2,16.9s-11,7.7-16.9,4.2c-57.6-34.7-123.7-53-191.3-53c-204.8,0-371.4,166.6-371.4,371.4
			s166.6,371.4,371.4,371.4S767.5,787.9,767.5,583c0-44.3-7.7-87.7-23-128.9c-2.4-6.4,0.9-13.5,7.3-15.8c6.4-2.3,13.5,0.9,15.8,7.3
			c16.3,43.9,24.5,90.2,24.5,137.5C792.2,801.4,614.5,979.1,396.1,979.1z"/>
	</g>
	<path class="st1" d="M978.6,31.8l-19.2-17.4l0,0c-22.8-20.6-58.1-18.9-78.8,3.9l-28.2,31.2l0,0l-439.7,485c-1,1.1-1.8,2.3-2.3,3.7
		l-60.6,150.9c-1.9,4.8-0.7,10.2,3.2,13.7c2.3,2.1,5.3,3.2,8.3,3.2c1.9,0,3.9-0.5,5.7-1.4l144.2-75.1c1.3-0.7,2.5-1.6,3.4-2.7
		l439.7-485l28.2-31.3c10-11,15.1-25.3,14.4-40.2C996.2,55.5,989.7,41.8,978.6,31.8z M497.8,608.5l-63.3,33l-28.7-26l26.6-66.2
		L862.3,75.1l23.6,21.4L454.5,572.2c-4.6,5-4.2,12.8,0.8,17.4c2.4,2.1,5.3,3.2,8.3,3.2c3.4,0,6.7-1.4,9.1-4.1l431.4-475.9l23.6,21.4
		L497.8,608.5z M964.3,94l-20,22l-65.4-59.3l20-22c11.5-12.7,31.3-13.7,44-2.2l19.2,17.4C974.8,61.5,975.8,81.3,964.3,94z"/>
</g>
</svg>
