<svg xmlns="http://www.w3.org/2000/svg" viewBox="0 0 242 242"><style>.st0{stroke:#48b7b6;stroke-width:5.5861;stroke-linecap:round;stroke-miterlimit:10}.st0,.st1{fill:none}.st1,.st2{stroke-width:5.5861;stroke-linecap:round;stroke-miterlimit:10}.st1,.st2{stroke:#282929;stroke-linejoin:round}.st2{fill:#282929}</style><g id="Filament"><path class="st0" d="M143.14 48.45a32.977 32.977 0 0 0-22.26 0c-14.63 5.39-23.29 20.5-20.55 35.85 2.74 15.35 16.09 26.53 31.68 26.53s28.94-11.18 31.68-26.53c2.74-15.35-5.92-30.46-20.55-35.85z"/><path class="st1" d="M187.86 69.6l-12.22-5.24a45.13 45.13 0 0 0-2.55-6.14l4.93-12.35a3.22 3.22 0 0 0-.46-3.19 56.365 56.365 0 0 0-4.42-4.98 58.001 58.001 0 0 0-4.97-4.43c-.91-.71-2.12-.89-3.2-.46l-12.37 4.95c-1.54-.81-3.13-1.52-4.75-2.14-.45-.16-.9-.31-1.36-.45l-5.25-12.19a3.236 3.236 0 0 0-2.58-1.94c-4.41-.51-8.87-.51-13.29 0-1.15.14-2.13.88-2.58 1.94l-5.23 12.19c-.46.14-.92.29-1.39.46-1.62.61-3.21 1.32-4.74 2.12l-12.36-4.94a3.242 3.242 0 0 0-3.2.46 56.24 56.24 0 0 0-4.97 4.42 54.798 54.798 0 0 0-4.43 4.97c-.71.91-.89 2.12-.46 3.19l4.93 12.35c-1 1.98-1.85 4.03-2.55 6.14l-12.21 5.24c-1.06.45-1.8 1.44-1.94 2.58-.52 4.41-.52 8.86 0 13.27.14 1.15.88 2.13 1.94 2.58l12.21 5.24c.7 2.11 1.55 4.16 2.55 6.14l-4.91 12.36c-.43 1.07-.25 2.29.46 3.2 2.75 3.49 5.9 6.65 9.39 9.4.91.71 2.12.89 3.2.46l12.34-4.93c1.98 1 4.03 1.85 6.14 2.55l5.24 12.21c.45 1.06 1.44 1.8 2.58 1.94 4.41.52 8.87.52 13.29 0 1.15-.14 2.13-.88 2.58-1.94l5.24-12.21c2.11-.7 4.16-1.55 6.14-2.55l12.34 4.93c1.07.43 2.29.25 3.2-.46 3.49-2.75 6.65-5.91 9.41-9.4.71-.91.89-2.12.46-3.2L173.1 99.4c1-1.98 1.85-4.03 2.55-6.14l12.21-5.24c1.06-.45 1.8-1.44 1.94-2.58.52-4.41.52-8.86 0-13.27a3.197 3.197 0 0 0-1.94-2.57z"/><path class="st0" d="M99.96 201.95c10.71 0 19.39-8.68 19.39-19.39s-8.68-19.39-19.39-19.39-19.39 8.68-19.39 19.39c.01 10.71 8.69 19.38 19.39 19.39z"/><path class="st1" d="M63.69 175.11a3.234 3.234 0 0 0-2.18 2.64c-.43 3.2-.43 6.44 0 9.63a3.234 3.234 0 0 0 2.18 2.64l5.34 1.78c.63 2.12 1.48 4.16 2.53 6.1l-2.52 5.03c-.55 1.1-.43 2.42.32 3.41 1.96 2.56 4.26 4.86 6.82 6.82.98.75 2.3.87 3.41.32l5.03-2.52a31.99 31.99 0 0 0 6.11 2.53l1.77 5.33a3.234 3.234 0 0 0 2.64 2.18c3.2.43 6.44.43 9.64 0a3.22 3.22 0 0 0 2.64-2.18l1.77-5.33a32.26 32.26 0 0 0 6.11-2.53l5.03 2.52c1.1.55 2.42.43 3.41-.32 2.56-1.96 4.86-4.25 6.82-6.82.75-.98.87-2.3.32-3.41l-2.52-5.03a32.17 32.17 0 0 0 2.53-6.1l5.34-1.78a3.234 3.234 0 0 0 2.18-2.64c.43-3.2.43-6.44 0-9.63a3.234 3.234 0 0 0-2.18-2.64l-5.34-1.78c-.63-2.12-1.48-4.16-2.53-6.1l2.52-5.03c.55-1.1.43-2.43-.32-3.41a36.703 36.703 0 0 0-6.82-6.82c-.98-.75-2.3-.87-3.41-.32l-5.04 2.52a32.17 32.17 0 0 0-6.1-2.53l-1.77-5.33a3.234 3.234 0 0 0-2.64-2.18c-3.2-.43-6.44-.43-9.64 0a3.22 3.22 0 0 0-2.64 2.18l-1.77 5.33c-2.12.63-4.16 1.48-6.1 2.53l-5.04-2.52c-1.1-.55-2.42-.43-3.41.32a36.402 36.402 0 0 0-6.82 6.82c-.75.98-.87 2.3-.32 3.41l2.52 5.03a32.17 32.17 0 0 0-2.53 6.1l-5.34 1.78zM207.09 50.13l-.04 154.73h21.89l.04-154.73-10.94-29.57zm10.94 0l-.04 154.73m2.51 16.58h-5.03c-4.66 0-8.43-3.78-8.43-8.43v-8.15l21.89.01v8.15c0 4.65-3.77 8.43-8.43 8.42z"/><path class="st2" d="M211.74 37.57l12.6.01-6.3-17.02z"/><g><path class="st1" d="M19.48 221.61h19.39c3.57 0 6.46-2.89 6.46-6.46V26.85c0-3.57-2.89-6.46-6.46-6.46H19.48c-3.57 0-6.46 2.89-6.46 6.46v188.3c0 3.57 2.89 6.46 6.46 6.46z"/><path class="st2" d="M15.95 37.54h5.42m-5.42 16.69h5.42m-5.42 16.69h9.96m-9.96 16.69h5.42m-5.42 16.7h5.42M15.95 121h9.96m-9.96 16.69h5.42m-5.42 16.7h5.42m-5.42 16.69h9.96m-9.96 16.69h5.42m-5.42 16.69h5.42"/></g></g></svg>