<svg id="Layer_1" xmlns="http://www.w3.org/2000/svg" viewBox="0 0 1080 1080"><style>.st0{fill:#fff}</style><path class="st0" d="M1034.4 298.1c-9.1-134.3-110.2-237.5-244.8-247.4C623 38.5 455.8 39 289.1 50.5c-118.5 8.2-209.9 89-238.8 203.3-4.6 18.2-2.7 37.9-12.8 54.8v462.9c7.6 3.7 5.1 11 5.9 16.9 19.7 141 114 232.4 256.7 241.8 162.1 10.7 324.7 10.8 486.8-.4 135.6-9.4 238.3-112.4 247.5-247.7 10.9-161.2 10.8-322.8 0-484zm-88.5 449.8c-4.9 124.7-75.4 190.7-199.6 194.8-137.7 4.5-275.4 4.5-413.2.1-127-4.1-197.6-71.7-201.6-198.8-4.3-135.9-4.3-271.8 0-407.7 4-127.2 74.4-196 201.4-198.6 68.8-1.4 137.7-.2 206.6-.2s137.7-1.2 206.6.3c124.4 2.6 194.8 69.6 199.8 194.2 5.5 138.6 5.5 277.4 0 415.9z"/><path class="st0" d="M867.9 274.5c.5 31.6-26.6 59.8-59 61.1-33.6 1.4-62.3-25.9-62.8-59.5-.5-32.7 25.5-59.8 58.4-60.9 33.7-1.1 62.8 26.2 63.4 59.3zm-326.6 10.7c-142.8-1.6-260.2 112.5-260.8 253.3C279.8 679.8 394.8 794.3 538 795c141.8.6 258.2-112.4 259.5-251.9 1.2-141.6-112.8-256.4-256.2-257.9zM539.6 705c-91.9.5-166.7-74-166.5-165.7.2-90.2 74.2-163.8 165.2-164.3 91.9-.5 166.7 74 166.5 165.7-.2 90.2-74.2 163.8-165.2 164.3z"/></svg>