<?xml version="1.0" encoding="utf-8"?>
<!-- Generator: Adobe Illustrator 21.0.0, SVG Export Plug-In . SVG Version: 6.00 Build 0)  -->
<svg version="1.1" id="Layer_1" xmlns="http://www.w3.org/2000/svg" xmlns:xlink="http://www.w3.org/1999/xlink" x="0px" y="0px"
	 width="886.9px" height="1038.5px" viewBox="0 0 886.9 1038.5" style="enable-background:new 0 0 886.9 1038.5;"
	 xml:space="preserve">
<style type="text/css">
	.st0{fill:#4AB8B6;}
	.st1{fill:#FFFFFF;}
</style>
<g>
	<g>
		<path class="st0" d="M449.6,757.2c-21.1,0-38.3-17.2-38.3-38.3V541.1c0-7.5-6.1-13.7-13.7-13.7s-13.7,6.1-13.7,13.7v92.8
			c0,21.7-15.8,45-50.5,45c-6.8,0-12.3-5.5-12.3-12.3s5.5-12.3,12.3-12.3c16.2,0,25.8-7.6,25.8-20.4v-92.8
			c0-21.1,17.2-38.3,38.3-38.3s38.3,17.2,38.3,38.3v177.8c0,7.5,6.1,13.7,13.7,13.7c7.5,0,13.7-6.1,13.7-13.7V579.5
			c0-21.1,17.2-38.3,38.3-38.3s38.3,17.2,38.3,38.3v63.6c0,7.5,6.1,13.7,13.7,13.7c6.8,0,12.3,5.5,12.3,12.3s-5.5,12.3-12.3,12.3
			c-21.1,0-38.3-17.2-38.3-38.3v-63.6c0-7.5-6.1-13.7-13.7-13.7s-13.7,6.1-13.7,13.7v139.4C487.9,740,470.7,757.2,449.6,757.2z"/>
	</g>
	<g>
		<g>
			<path class="st0" d="M443.5,124c-6.8,0-12.3-5.5-12.3-12.3V12.3c0-6.8,5.5-12.3,12.3-12.3s12.3,5.5,12.3,12.3v99.5
				C455.8,118.5,450.3,124,443.5,124z"/>
		</g>
		<g>
			<path class="st0" d="M244.3,177.4c-4.3,0-8.4-2.2-10.7-6.2l-49.7-86.1c-3.4-5.9-1.4-13.4,4.5-16.8s13.4-1.4,16.8,4.5l49.7,86.1
				c3.4,5.9,1.4,13.4-4.5,16.8C248.5,176.9,246.4,177.4,244.3,177.4z"/>
		</g>
		<g>
			<path class="st0" d="M98.4,323.3c-2.1,0-4.2-0.5-6.1-1.7L6.2,271.9c-5.9-3.4-7.9-10.9-4.5-16.8c3.4-5.9,10.9-7.9,16.8-4.5
				l86.1,49.7c5.9,3.4,7.9,10.9,4.5,16.8C106.8,321,102.7,323.3,98.4,323.3z"/>
		</g>
		<g>
			<path class="st0" d="M788.6,323.3c-4.3,0-8.4-2.2-10.7-6.2c-3.4-5.9-1.4-13.4,4.5-16.8l86.1-49.7c5.9-3.4,13.4-1.4,16.8,4.5
				c3.4,5.9,1.4,13.4-4.5,16.8l-86.1,49.7C792.8,322.7,790.7,323.3,788.6,323.3z"/>
		</g>
		<g>
			<path class="st0" d="M642.7,177.4c-2.1,0-4.2-0.5-6.1-1.7c-5.9-3.4-7.9-10.9-4.5-16.8l49.7-86.1c3.4-5.9,10.9-7.9,16.8-4.5
				c5.9,3.4,7.9,10.9,4.5,16.8l-49.7,86.1C651.1,175.2,647,177.4,642.7,177.4z"/>
		</g>
	</g>
	<g>
		<path class="st1" d="M553.1,889.9c-6.8,0-12.3-5.5-12.3-12.3V768.2c0-4.9,3-9.4,7.5-11.3c98.9-42.1,162.8-138.8,162.8-246.2
			c0-147.5-120-267.5-267.5-267.5s-267.5,120-267.5,267.5c0,111.5,70.3,212.4,174.8,251c4.8,1.8,8,6.4,8,11.5v104.5
			c0,6.8-5.5,12.3-12.3,12.3s-12.3-5.5-12.3-12.3v-96c-109.7-44.3-182.9-152.1-182.9-271c0-161.1,131-292.1,292.1-292.1
			s292.1,131,292.1,292.1c0,114.6-66.5,217.9-170.2,265.5v101.4C565.4,884.4,559.9,889.9,553.1,889.9z"/>
	</g>
	<g>
		<g>
			<path class="st1" d="M540,951.4H358.2c-6.8,0-12.3-5.5-12.3-12.3s5.5-12.3,12.3-12.3h181.9c6.8,0,12.3,5.5,12.3,12.3
				C552.3,945.9,546.8,951.4,540,951.4z"/>
		</g>
		<g>
			<path class="st1" d="M540,995.4H358.2c-6.8,0-12.3-5.5-12.3-12.3s5.5-12.3,12.3-12.3h181.9c6.8,0,12.3,5.5,12.3,12.3
				C552.3,989.9,546.8,995.4,540,995.4z"/>
		</g>
		<g>
			<path class="st1" d="M540,1038.5H358.2c-6.8,0-12.3-5.5-12.3-12.3c0-6.8,5.5-12.3,12.3-12.3h181.9c6.8,0,12.3,5.5,12.3,12.3
				C552.4,1033,546.8,1038.5,540,1038.5z"/>
		</g>
	</g>
</g>
</svg>
