<svg xmlns="http://www.w3.org/2000/svg" viewBox="0 0 1080 1080"><path d="M1060.6 1037.3H837.7v-11.4c0-114.2.1-228.4-.1-342.6 0-26.1-2.1-52.1-9.3-77.2C821.7 583.4 811 563 792 548c-24.1-19-52-23.5-81.6-20.3-52.7 5.7-89.3 43.4-103 89.9-4.6 15.6-4.3 32.9-4.4 49.4-.3 119.5-.2 238.9-.2 358.4v11.3H379.9v-670c2.4-.1 5.1-.5 7.7-.5 68.7 0 137.5.1 206.2-.2 7.5 0 9.3 2.4 9.2 9.5-.4 24.4-.2 48.8-.2 73.2 0 2.9 0 5.8 1.7 9.3 5.4-7.2 10.6-14.4 16.1-21.4 30.1-38.8 68.2-66.1 116.4-77.8 50.9-12.3 101.5-10.7 151.7 4.4 37.4 11.2 69.6 30.9 96.5 59.1 21.4 22.5 37.2 48.7 48.9 77.4 14.9 36.5 21.6 74.8 25.2 113.8.3 2.7.9 5.4 1.4 8.1-.1 138.5-.1 277.1-.1 415.7zM19.4 142.5c2.2-7.7 3.9-15.5 6.6-22.9C41.1 77.7 72 54.3 114.7 46c37.4-7.3 73.8-4 106.1 17.9 38.2 26 52.9 63.8 48.4 108.6-6 59.6-52.1 96.2-110.6 101.3-33.8 3-65.8-2.9-93.8-23.3-24.2-17.6-38-42-43.7-71.1-.4-1.8-1.1-3.6-1.7-5.4v-31.5zm235.8 894.8h-8.3c-68.2 0-136.3-.1-204.5.2-7.7 0-9.7-2.1-9.7-9.7.2-217.5.2-435 .2-652.5 0-2.7.2-5.4.4-8.6h222c-.1 223.3-.1 446.4-.1 670.6z" fill="#fff"/></svg>