<svg xmlns="http://www.w3.org/2000/svg" viewBox="0 0 1498.1 1080"><path d="M393.4 632.7V556h.9l23.2 77.5c3.4 10 3.9 10 15.8 10h5.4V525.4c0-10.9-.2-10.9-12.9-10.9h-4v89.8h-.9l-24.6-79.7c-3.8-10.1-3.8-10.1-15.6-10.1h-3.9v129.2h3.8c12.6 0 12.8 0 12.8-11zm68.8-118.3h-4.3v75.4c0 37.4-.2 55.1 32 55.1 32.5 0 32.7-17.8 32.7-55.1v-64.5c0-10.9-.2-10.9-12.9-10.9h-4.5v75.4c0 27.1 0 39.1-15.3 39.1-14.2 0-14.7-10.2-14.7-33.4v-70.2c-.1-10.9-.1-10.9-13-10.9zm110 15.5l5 1.3c15.4 2.9 18.8.7 20.8-13.1l-25-5.7c-32.7 0-32.7 29.1-32.7 65.7 0 37 0 66.9 32.7 66.9 9 0 16.2-2.1 25.1-3.2v-17.4c-9.3.5-16.7 1.8-26 1.8-14.2 0-14.2-21-14.2-48.1.1-27.2.1-48.2 14.3-48.2zm72.2 0l5 1.3c15.5 2.9 18.8.7 20.8-13.1l-24.9-5.7c-32.7 0-32.7 29.1-32.7 65.7 0 37 0 66.9 32.7 66.9 9 0 16.1-2.1 25.1-3.2v-17.4c-9.3.5-16.7 1.8-26 1.8-14.2 0-14.2-21-14.2-48.1 0-27.2 0-48.2 14.2-48.2zM754.2 578c0-45.6-8.1-65.7-34.5-65.7-26.6 0-35 20.1-35 65.7s6.7 66.9 35 66.9c28.4 0 34.5-21.3 34.5-66.9zm-52.4 0c0-32.1 5.6-49.7 18-49.7 12.2 0 17.8 18 17.8 49.9s-4 50.8-17.8 50.8c-14-.1-18-18.9-18-51zm177.9-27.6v-7.1c0-5.9-.4-10-1.2-12.4-.4-1.3-.9-2.9-1.6-4.9-.7-2-1.6-3.4-2.6-4.3-1-.9-2.3-2-4-3.2-4.1-3.1-11.5-4.6-22.2-4.6l-24.3 2v127.7l27.8 1.4c6.7 0 12.8-.7 18.3-2.1 2.2-.6 4.3-1.5 6-2.7 1.8-1.2 3.2-2.4 4.3-3.4 1.1-1 2.1-2.5 2.9-4.4.8-1.9 1.6-4 2.2-6.3.6-2.2 1-8.4 1-18.4 0-9.8-.9-17.1-2.6-21.7-1.7-4.7-4.7-8.8-9-12.5 2-2.8 3.3-5.8 3.9-8.8.8-3.2 1.1-7.9 1.1-14.3zm-40-21.1h8.2c6.7 0 11.1 1.5 13 4.5 2 3 2.9 8.4 2.9 16.2 0 7.8-.9 12.7-2.7 14.7-1.8 2-6.2 3-13.3 3h-8.5l1.6-3.5V533l-1.2-3.7zm27.8 96.7c-2.3 3.1-7.7 4.7-16.1 4.7h-12.2l1.6-3.7v-42.9l-1.6-3.7h12.2c8.6 0 14.2 2.9 16.7 8.7 1.2 2.8 1.9 5.7 2.3 8.6.4 2.9.5 7.6.5 14 .1 6.4-1.1 11.2-3.4 14.3zm52.2-99.2c0-5.4-.6-8.6-1.7-9.5-1.1-.9-4.9-1.3-11.3-1.3h-4.4v127.7H954v-4.8c0-5.4-.6-8.6-1.7-9.6-1.1-.9-4.9-1.4-11.3-1.4h-22.9l1.6-4.4v-96.7zm81.2 118.1c13.4 0 22.5-5.1 27.1-15.2 4.7-10.1 7-26.9 7-50.5s-2.5-40.3-7.4-50.4c-5-10-13.9-15.1-26.7-15.1-12.8 0-21.8 5.1-26.9 15.2-5.1 10.1-7.6 26.9-7.6 50.3s2.4 40.2 7.2 50.4c4.8 10.2 13.9 15.3 27.3 15.3zm0-115.3c11.8 0 17.6 16.4 17.6 49.3 0 16.8-1.3 29.4-3.9 37.7-2.6 8.3-7.2 12.5-13.7 12.5-6.6 0-11.2-4.2-13.7-12.5-2.6-8.3-3.9-21-3.9-37.9 0-32.7 5.8-49.1 17.6-49.1zm100.4 47.9c-.9 1.1-1.3 4.9-1.3 11.4V623l1.4 4.4c-7.1 1.2-12.1 1.8-14.9 1.8-1.9 0-3.5-.3-5-.9-1.4-.6-2.7-1.7-3.7-3.2-1.1-1.5-2-3-2.8-4.4-.8-1.4-1.4-3.5-1.8-6.4-.4-2.8-.8-5.7-1.2-8.5-.4-2.8-.6-8.4-.6-16.7v-20.4c0-8.3.3-14.1.9-17.6.2-1.9.6-4.2 1-7s1-4.9 1.8-6.2c.8-1.4 1.7-2.8 2.8-4.2 1.9-2.7 4.8-4.1 8.7-4.1l6.7 1.2c4.3.8 7.5 1.2 9.8 1.2 2.3 0 4-.2 5.1-.7 2.2-1.2 3.8-5.1 4.8-11.9l-26.4-5.7c-6.1 0-11.3 1.2-15.5 3.6-4.2 2.4-7.4 5.2-9.5 8.2s-3.7 8-4.8 14.8c-1.1 6.8-1.7 12.5-1.9 17-.2 4.6-.3 11.6-.3 21.2v12.1c0 2.6.1 6.2.4 10.9.2 4.7.5 8.2.9 10.6.4 2.4.9 5.4 1.6 9 .7 3.6 1.6 6.4 2.7 8.2 1.1 1.9 2.4 4 4 6.3s3.4 4 5.5 5.1c2.1 1.1 4.5 2.1 7.4 2.8 2.8.8 6.5 1.2 11 1.2s10.9-.6 19.2-1.8c4.3-.6 7.4-1 9.4-1.2v-66h-5.9c-5.5.2-8.6.8-9.5 1.8zm10.4-153.4c-5.8-19.8-15.1-33.5-20.4-40.1 2.6-15 8-59.1-6.3-110.9-14.3-52-56.8-81.6-75.6-92.4 2.9-11.3 2.7-30.3-18.3-53-22.1-24-44-28.8-55.5-29.5-4.1-7.5-12.2-20.1-23.8-28.3-11.5-8.2-24.3-9.3-32.7-8.9-4.3-8.1-12.3-17-25-19.6-11.2-2.2-21.5 0-28.4 2.3-6.9-8.2-19.8-21.1-36.1-25.5-19.8-5.3-46.9 3.3-56.7 6.9-.6-.3-1.2-.6-1.9-.9-44.6-14.8-69.8 2.2-80.5 12.9-10.6-4.1-29.4-8.2-45.2 4.8-7.7 6.3-11.5 13.3-13 19.9-12.9-4.2-29.3-4.7-45.4 5.6-19.4 12.5-22.7 31.2-20.6 46.3-16.4.8-41.6 9.4-70 45.4-35.6 45.1-36.8 82.8-35.1 98.9-13.5 8.4-41.5 29.1-42.7 56.7-1 23.6 9.5 47.3 15.6 58.9-6.9 8.2-17.8 24.5-24 50.4 0 0 0 .1-.1.3-.1.6-.3 1.1-.4 1.7h.1c-.4 2-1 5.1-1.5 8.1-.4 2.3-1.9 10.2-1.9 10.2h750.5s-.8-6.1-2.3-11.4c-1.8-5.6-2.8-8.8-2.8-8.8zm-47-145.4c10.1 36.8 9.4 69.8 7.5 88.8-16.5-16.1-39.2-26.3-63.8-28.3 0 0 22-22.6 30.3-49.8 4.2-19.9 2.6-44.8-4.7-62.9 12.6 13.2 24.7 30.5 30.7 52.2zM742.7 44c10.8-3.6 29.8-8.5 41.5-5.4 13.5 3.6 25.7 18.4 29.3 23.8.2.3.5.6.7.9-2 23.7-19.5 27.1-46.9 30.3-10.3 1.2-21.7 2.6-31.1 6.5 1.8-24.6 4.9-46.1 6.5-56.1zm-124 14.3c11.4-9.4 29.1.8 29.2.9.4.3.9.4 1.4.6 34.9 20 36.1 58.4 25.8 86.2-1.5 4.1.6 8.6 4.7 10.1.9.3 1.8.5 2.7.5 3.2 0 6.2-2 7.4-5.2 12.4-33.6 8.7-75.2-24.2-99.7 6.8-6.6 23.9-17.9 55.7-8.3-2.6 16.8-7.7 54.4-7.8 91.5 0 21.9 1.9 43 4.6 63.2-21.2-14.9-46.1-18.9-69.7-10.9-21.8 7.4-38.2 24.5-41.9 43.5-3.3 16.9 3.4 33.5 18.7 46.7 5.2 4.4 11.9 6.4 18.9 6.4 10.9 0 22.4-4.6 30.1-11.7 11.4-10.5 12.9-24.6 4-36.8-.2-.2-.3-.4-.5-.7-2.1-2.3-12.9-13.6-24.7-12.3-3.9.4-9.4 2.5-13.4 9.5-2.1 3.8-.8 8.6 3 10.8 3.8 2.1 8.6.8 10.8-3 .4-.7 1-1.5 1.3-1.5 2.3-.3 7.6 3.5 10.9 6.9 1.7 2.4 5.5 8.5-2.2 15.5-8.1 7.4-22.2 9.9-28 4.9-11-9.5-15.7-20.5-13.5-31.7 2.6-13.6 15-26 31.5-31.5 21.2-7.2 43.8-1.8 62.5 14.4 2.2 1.9 4 3.4 5.5 4.6 1.4 8.9 2.9 17.5 4.4 25.8.8 4.8 1.6 9.6 2.4 14.3-16.3 37.7-68.7 54.6-108.8 46-16.9-3.6-55.5-17.4-49-67 5.2-39.8 17.5-51.7 30.6-64.3 10.3-9.9 21.9-21.2 29.4-45.2 6.6-21.2-6.1-39.3-17.1-50.1-.2-.2-.3-.4-.5-.7-.7-1.5-3.8-13.9 5.8-21.7zm-227 365.8c3.4-12.3 8-21.6 12.1-28.1.2 3.5.4 7.2.6 10.5.3 5.6.7 11.6 1.1 17.6h-13.8zm71.9 0c.5-1.8 1-3.6 1.8-5.4 3.4-8 12.3-20.8 33.1-16.5 12.9 2.7 20 13.1 23.9 21.9h-58.8zm38.1-37.4c-22.9-4.7-41.9 4.9-50.9 25.8-1.6 3.7-2.7 7.6-3.4 11.6h-26.1c-.5-6.4-.8-12.7-1.2-18.5-.9-14.8-1.4-24.5-2.7-30.9-.1-1.4-.5-2.8-1.1-4.1-.6-1.8-1.4-3.1-2.4-4.2-4.5-8.2-15.4-30.2-14.5-50.6.6-13.7 14.8-27 26.5-35.5.3 25.2 6.9 62.2 25.9 85 1.6 1.9 3.8 2.9 6.1 2.9 1.8 0 3.6-.6 5.1-1.8 3.4-2.8 3.8-7.8 1-11.1-18.6-22.2-23.2-66.7-21.2-89.2.4-1.6.4-3.4-.1-5.1-.4-1.6-9.5-38.6 30-88.6 37.2-47 62.7-36.9 63.5-36.5.8.4 1.7.7 2.6.9 9.4 13.2-1.2 31.4-18.9 58.9-19.3 30-41.1 64.1-32 102.3 6.6 27.8 28.8 52.8 67.6 76.4-9.4 9.9-16.8 22-22.3 36.2-7.5-12.9-18.3-21.1-31.5-23.9zm126.6 37.4c1.2-.4 36.6-30.6 91.3 0h-91.3zm100.3-37c-1.8 11.4-.6 12.7-1.7 23.3-69.4-38.6-115 5.8-124.2 13.7H545c6.3-26.8 23.4-45.1 44.8-55.6 33.1-16.3 82.7-12.5 136.6 9.2 1.3.5 2.5 1 3.5 1.3-.5 2.7-.9 5.4-1.3 8.1zm3.6-24.2c-34-14-98.5-33.7-149.4-8.7-5.3 2.6-10.3 5.6-14.9 9-.1 0-.1-.1-.2-.1-37.5-22-58.6-44.6-64.4-69-7.5-31.6 12.4-62.7 30-90.1 16.8-26.2 32.8-51.1 21.3-72.4-.8-2.3-2.2-5.5-4.2-10.1-1.1-2.5-11-24.2 7.9-36.4 20.5-13.1 39.9 3.1 40.6 3.8.8.7 1.5 1.1 2.3 1.5 8.1 7.4 19 21 14.4 35.6-6.3 20.1-15.5 29.1-25.3 38.5-14.5 14-29.4 28.4-35.3 73.7-5.6 42.8 17.9 75.1 61.4 84.5 8.1 1.8 16.6 2.6 25.2 2.6 34.3 0 70.1-13.8 90.7-39.9 1.9 13.4 3.1 26.2 3.1 38 0 13-1.4 26.3-3.2 39.5zm37.5 49.9c.2 3.8.9 7.6 2 11.3h-27c1.1-10.6 2.9-22 4.7-33.7 3.5-21.8 7-44.3 7-67 0-19.9-3.1-41.5-6.9-64.3 18.3-2.5 31 .1 37.7 7.7 15.5 17.6 2.3 63.1-7.2 96.3-6 20.5-11.1 38.2-10.3 49.7zm72.2 11.3H827c.9-.6 1.6-1.4 2.2-2.4 2.2-3.8.9-8.6-2.9-10.8-3.7-2.1-6.1-3.9-5.7-7.6.3-3.2 1.7-8.4 9.5-9.6 8.4-1.3 11.3 4.1 12.6 7.6 2.4 6.3 1.8 14.9-.8 22.8zm63.8-47.5c-10.2-24.7-28.7-40.9-52-45.7-4.3-.9-8.5 1.9-9.3 6.2-.9 4.3 1.9 8.5 6.2 9.3 18 3.7 32.4 16.5 40.6 36.2 5.4 12.9 7.4 27.5 6.5 41.5h-39.2c2.3-9.8 2.3-20-.8-28.4-4.8-12.9-16-18.6-30.8-17.7-10.1.6-22.1 12.7-22.1 26.7 0 5.3 2.3 12.8 13.1 19.3h-29.2c-1.6-3.9-2.7-8.1-3-12.3-.5-8.8 4.4-26 9.7-44.3 11.8-40.8 25.1-87 3.9-111.1-10.5-11.9-28.1-16.2-52.2-12.9v-.1c-5.7-32.8-12.1-70-12-108.5 0-5 .1-10 .3-15 4.9-6.3 15.7-8.4 34-10.6 24.6-2.9 57.7-6.8 60.9-44.7 3.8-1.5 11.6-4.1 20-2.6 12.6 2.2 15.4 18.8 15.8 21.3 3.4 28 4.6 56.1-5.8 78.8-34.7-32.6-63.2-30.8-77.6-26.4-18.3 5.5-32.1 20.6-35.2 38.4-2.7 15.6 3.3 30 16.3 39.6 8.3 6.1 15.8 8 22 8 5.7 0 10.2-1.7 13.2-3.2 10.3-5.3 17-16.5 16.9-28-.1-9.4-4.9-17-13.2-21a7.8 7.8 0 0 0-10.5 3.7c-1.9 4-.2 8.7 3.7 10.6 1 .5 4.2 2 4.2 6.9.1 5.4-3.4 11.2-8.3 13.7-6.7 3.5-13.8 0-18.6-3.5-11-8-11-18.6-10.1-24.2 2-12 11.5-22.2 24.2-26 11.4-3.4 34.5-4.4 64.7 25.3-3 4.3-5.9 8.2-8.7 12-15.5 20.8-27.7 37.2-18.4 76.4 7 29.4 30.9 51.2 64.1 58.4 7.5 1.6 15 2.4 22.4 2.4 25.5 0 49.1-9.3 61.5-25.4 12.7-16.5 13.2-38.5 1.2-62.1-2-3.9-6.7-5.4-10.6-3.5-3.9 2-5.5 6.7-3.5 10.6 9.2 18.1 9.3 33.7.4 45.3-12.2 15.8-40.8 23.1-68.1 17.2-13-2.8-44.1-12.9-52-46.5-7.6-32.1 1.2-43.8 15.7-63.3 3.9-5.3 8.4-11.2 12.8-18.1 18.3-28.1 17.3-63.1 13.1-97.6 5-.1 12 .8 18 5.1 10 7.1 16.9 19.7 19.1 24.2-3.6 10.1-3.4 25.4-3.1 42.4.2 14.9.5 30.2-2.2 38.8-2 6.3-6.6 13.5-11.1 20.4-10.5 16.1-23.6 36.2-6.3 55.1.6.6 1.3 1.2 2 1.6 1.2.7 9.1 4.9 17.7 4.9 3.4 0 6.8-.6 10.1-2.4 4.5-2.4 10.2-7.8 11.3-19.9.4-4.4-2.8-8.2-7.2-8.6-4.3-.4-8.2 2.8-8.6 7.2-.2 2.3-.8 6.3-2.9 7.4-2.5 1.4-8 0-11.6-1.7-7-8.6-2.6-17.5 8.7-34.8 5.1-7.8 10.3-15.9 13-24.3 3.5-11 3.2-27.7 2.9-43.8-.2-10.4-.4-26.3 1.3-34.3 5.8 0 23.4 1.7 42.9 22.8 20.3 22 12.8 35.8 11.9 37.3-.1.1-.1.1-.1.2-7.3.4-15.9 2.6-25.2 8.9-3.6 2.4-4.6 7.3-2.2 11 2.4 3.6 7.4 4.6 11 2.2 12.5-8.4 20.5-5.6 23.3-5 1.3.7 2.9 1.6 4.8 2.7 1.4 1.5 2.9 3.8 5.2 7.5 1.9 3 3.9 6.4 6.3 9.9 12.9 18.8 17.3 41.8 12.5 64.7-5.1 24.1-20.2 45.5-41.5 58.8-.2.1-.3.2-.5.4-28.7 4.8-54 20.9-72.2 46.1-1-3.3-2.2-6.7-3.5-9.9zm62.2 47.5c12.4-9.8 26.8-14.3 40-12.1 8.5 1.5 16.1 5.6 22.5 12.1h-62.5zm82.7 0c-10.2-15.2-24-24.9-40-27.7-21.2-3.6-44.3 5.2-61.7 23.6-1.2 1.3-2.3 2.6-3.4 4.1h-32.1c.3-4.9.3-9.9-.1-14.9 2-2.9 4.3-6.8 4.9-7.8 19.3-30.5 49.8-47.6 83.7-46.6 30.5.7 58 16.2 71.7 40.4 1.4 2.7 10.1 11.9 16.1 29h-39.1zm60.5 311.4l-.5-2.5c-.1-.7-.3-1.5-.5-2.2-.4-2-.9-4.3-1.4-5.9-1.6-5.4-3.1-10.5-3.1-10.5H370.2l.1 10.5h-.1c0 3.2.1 6.5.2 9.8v.7c.7 18.2 3.3 39.4 9.6 62.2 13 47.4 48.7 76.8 70.3 90.9 2.2 2.8 4.7 5.3 7.5 7.2-2.4 11.9-.9 30.5 19.5 52.6 23 24.9 45.6 29.8 57.5 30.6 4.3 7.9 12.7 20.8 24.7 29.4 11.9 8.5 25.2 9.6 33.9 9.2 4.5 8.4 12.7 17.6 25.9 20.3 11.7 2.3 22.3.1 29.5-2.4 7.1 8.6 20.5 21.9 37.4 26.4 4.6 1.2 9.6 1.7 14.6 1.7 17.6 0 36.2-6 44.2-8.9.1.1.3.1.4.2.3.2.6.3.9.4.2.1.4.2.7.3 12.9 4.3 24.3 6 34.2 6 25.5 0 41.3-11.4 49.3-19.4 11 4.2 30.4 8.5 46.8-5 8-6.6 12.2-13.9 14.1-20.8 12.8 4.6 29.4 5.4 46.4-5.6 20.2-12.9 23.6-32.3 21.4-48 16.9-.8 43.1-9.8 72.6-47.1 36.9-46.8 38.2-85.8 36.4-102.6 14-8.7 43-30.2 44.3-58.8.2-6.2-.4-12.6-1.4-18.7zm-429.6 0h50.9c.6 7.4 1.2 15.4 1.9 24 1.4 16.7 3 35.5 4 53.7-20.3 2.8-49.3 1.2-56.4-6.8-11.8-13.5-7.5-42.7-.4-70.9zM401 791.8c-5.6-20.5-8-39.8-8.7-56.4h56.3c-13.7 14.7-23.4 32.8-27.5 52.5-3.2 15-3 30.1.1 44.4-8.4-11.3-15.8-24.8-20.2-40.5zm290.8 249c-13.5-3.6-25.7-17.9-29.9-23.9.4-14.5 3.5-24.4 9.2-29.6 7.9-7.2 21.1-5.6 33.9-4.1 6 .7 11.9 1.4 17.2 1.1 0 1.7 0 3.4.1 5 1 20.4 5.8 36 10.4 46.6-11.4 3.6-29.5 7.9-40.9 4.9zm47.3-176.7c-1.1 21.7-5.1 41.4-9 60.5-3 14.8-5.9 29-7.2 43.1-3.9.6-11.2-.3-15.9-.9-14.9-1.7-33.5-4-46.9 8.3-8.7 7.9-13.4 20.5-14.4 38.1-3 1.4-12.2 5.3-22.2 3.2-9.4-1.9-12.5-13-12.6-13.4-.4-1.6-1.2-3.1-2.3-4.4-.6-3.8-1.3-7.7-1.9-11.4-4.3-25.2-8.7-51.2-.2-72.3 25.2 23.6 47.2 29.7 63.2 29.7 6.8 0 12.6-1.1 17-2.5 19-5.7 33.3-21.4 36.5-39.8 2.8-16.2-3.4-31.1-16.9-41-16.6-12.2-30-8.3-36.5-5-10.6 5.5-17.7 17.1-17.5 29 .1 9.7 5.1 17.7 13.7 21.7 4.1 2 9 .2 10.9-3.8 2-4.1.2-9-3.8-11-1.1-.5-4.3-2.1-4.4-7.2-.1-5.6 3.5-11.6 8.6-14.2 6.9-3.6 14.3 0 19.3 3.7 11.4 8.4 11.4 19.3 10.5 25.1-2.1 12.4-12 23-25.1 26.9-11.8 3.6-35.8 4.5-67-26.2 3.1-4.4 6.1-8.5 9-12.4 16.1-21.5 28.7-38.5 19.1-79.2-7.2-30.5-32-53.1-66.4-60.5-34.6-7.5-70.4 2.4-87 23.8-13.2 17.1-13.6 40-1.3 64.4 2 4 7 5.7 11 3.6 4-2 5.7-7 3.6-11-9.5-18.7-9.6-34.9-.4-47 12.6-16.4 42.3-23.9 70.5-17.8 13.5 2.9 45.7 13.4 53.9 48.2 7.8 33.3-1.2 45.4-16.3 65.6-4 5.4-8.5 11.4-13.1 18.4-.1.1-.1.2-.2.2v.1c-18.2 27.8-12.2 62.5-7 93.2.3 2 .6 3.9 1 5.8-5.2.2-12.9-.6-19.5-5.3-12.8-9.1-20.6-26.8-20.7-26.9-.4-1-1-1.9-1.7-2.7 1.4-9.1 1-21.1.2-36.6-.8-15-1.7-32 1.1-40.9 2.1-6.6 6.9-14 11.6-21.2 10.9-16.7 24.4-37.5 6.5-57.1-.6-.7-1.3-1.2-2.1-1.6-1.7-.9-16.8-8.9-28.8-2.6-4.7 2.5-10.6 8.1-11.7 20.7-.4 4.5 2.9 8.5 7.4 8.9 4.5.5 8.5-2.9 8.9-7.4.2-2.4.9-6.5 3-7.6 2.6-1.4 8.3.1 12.1 1.8 7.2 8.9 2.7 18.1-9.1 36-5.3 8.1-10.7 16.5-13.5 25.2-3.7 11.8-2.7 29.5-1.8 46.7.5 9.4 1.2 23.3.3 31.9-8.2-.9-23.7-5.2-40.6-23.5-15.8-17.1-15.4-29.4-13.8-35.2 6-1.8 12.8-5.3 20.9-10.7 3.8-2.5 4.8-7.6 2.2-11.4-2.5-3.7-7.6-4.8-11.4-2.2-4.6 3.1-8.3 5.2-11.4 6.6-.9-.9-2-1.6-3.2-2.2-.2-.1-10-4.8-22.7-14.1-1.2-1.9-2.5-3.9-3.9-6-13.3-19.5-17.9-43.3-12.9-67.1 4.7-22.2 17.6-42 35.9-55.9h191.5c-7.8 32.1-11.2 63.2 5.1 81.7 8.5 9.7 21.5 14.5 38.7 14.5 4.7 0 21.9-1.3 30.7-2.2.8 12.7.9 24.5.4 34.8zm124.2 156.2c-4.7 3.8-9 4.4-12.9 3.5-.3-.2-.6-.3-.9-.5-39-18.8-63.3-59.4-51.5-91.7 1.6-4.2-.6-8.9-4.8-10.5-4.2-1.5-9 .6-10.5 4.8-12.4 33.8 2.5 72.6 35.1 97.5-2.7 3.7-20 24.5-60.5 12.5-3.6-5.8-11.8-22-13.1-47.8-.9-18.5 3.1-38.3 7.4-59.1 3.1-15.1 6.2-30.6 8.1-47.4 12.9 7.6 26.8 11.5 40.9 11.5 8.4 0 16.8-1.4 25.1-4.2 22.6-7.7 39.6-25.4 43.5-45.1 3.4-17.5-3.5-34.7-19.4-48.4-13.7-11.8-37.7-6.6-50.8 5.5-11.8 10.9-13.4 25.5-4.2 38.2.2.2.3.5.6.7 2.1 2.4 13.4 14.2 25.5 12.8 4.1-.5 9.7-2.5 13.8-9.9 2.2-4 .8-8.9-3.1-11.2-4-2.2-8.9-.8-11.1 3.1-.4.8-1 1.5-1.4 1.6-2.5.3-7.9-3.6-11.3-7.2-1.8-2.5-5.7-8.8 2.3-16.1 8.3-7.7 23-10.3 29-5.1 11.4 9.8 16.3 21.2 14 32.9-2.7 14.1-15.5 26.9-32.7 32.7-19.9 6.8-41.2 2.9-59.2-10.5.8-19.6-.3-44-2-67.8 16.3-31.6 61.6-44.1 97-35.6 17.5 4.2 57.4 19.8 50.3 74.3-4.7 36.1-21 48.8-36.7 61.1-15.4 12-31.3 24.5-25.7 56.3 2.7 15.3 11.3 30.8 22.9 43.1 6.3 9.7 6.5 17.7-3.7 26zm62.7-27.9c-14.2 9.1-27.7 5.1-35.2 1.2-15.3-10.6-27.8-28.3-30.8-45.2-3.9-22.1 5-29 19.7-40.5 16.6-13 37.3-29.1 42.9-71.9 7.2-55.3-27.7-84-62.7-92.4-34.7-8.3-77.6.3-102.7 26.4-.3-4.2-.7-8.3-1-12.4-.7-7.9-1.3-15.3-1.8-22.2h195c15.1 14.1 24.6 28.5 28.4 43.7 8.4 32.6-10.6 64.6-27.3 92.8-17.2 29-33.5 56.5-16 79.4 1.6 3.6 10.6 28.8-8.5 41.1zm88.6-90.2c-38.1 48.3-65.2 40.8-66.4 40-11.2-13.9-1-32.8 16.3-62 18.4-30.9 39.2-66 29.1-105.3-3.5-13.8-10.8-26.9-21.6-39.6h40.6c-.5 1.1-1.1 2.2-1.6 3.5-9.4 23.8 10 53.2 34.6 71.3v.2c.4 1.7 9.9 40.1-31 91.9zm76-148.8c-.8 18-24.3 35.5-36.4 42.6-18.8-14.4-33.6-36.6-27.9-51.2 2.1-5.4 4.7-8.1 7.2-9.5h10.1c7.9 2.9 13.7 10.7 14.7 13.3 2 5.3 3.7 8.2 8.2 8.2 4.5 0 8.2-3.7 8.2-8.2 0-4.3-1.9-8.9-5-13.3h19.3c1.1 6 1.9 12.2 1.6 18.1zM114.8 509H45.2s-26.9.3-26.9 62.4c0 64.8 26.9 63.2 26.9 63.2h263.2V509H114.8zM74.4 615.3H62v-86.4h12.4v86.4zm20.9 0H82.9v-86.4h12.4v86.4zm187.4-.9H114.8v-28.3h167.9v28.3zm0-83.7v26.1H114.8v-26.1h167.9zm1072.5-21.1h-171.1V641h170.3l121.2-54.8-120.4-76.6zm1.7 107.6h-148.8v-27h137.5s9.6-4.7 9.7-15.3c0-10.5-9.7-15.3-9.7-15.3h-137.5V535h149.7l48.1 30.7c-1.6 4.3-3.4 10.5-3.4 17.5 0 3.6 1 7.7 2.1 11.1l-47.7 22.9z" fill="#282828"/></svg>