<svg id="Layer_1" xmlns="http://www.w3.org/2000/svg" viewBox="0 0 1080 1080"><style>.st0{fill:#282929}</style><path class="st0" d="M469.5 811.4c-4.9-8.6-12.9-14.4-22.4-16.3-9.6-2-19.2.2-27 6.1l-75.8 57.1c-7.4 5.6-17.7 5.1-24.5-1-36.7-33-68.3-72.6-94-117.7-25.6-44.9-43.5-92.1-53.2-140.2-1.8-9 3.1-18.1 11.6-21.6l88-36.2c9-3.7 15.8-10.9 19-20.1 3.2-9.2 2.3-19-2.6-27.5l-55.1-97c-4.4-7.8-11.6-13.4-20.3-15.8-8.6-2.4-17.7-1.2-25.5 3.2l-51.6 29.4c-.2.1-.5.3-.7.4-4.5 2.1-8.3 4-11.8 6-49.8 28.4-77.8 82.8-78.8 153.3-1 69.1 22.9 148.6 69.2 229.8 46.2 81.2 102.4 142.3 162.3 176.7 33.9 19.5 67.8 29.3 99.8 29.3 25.6 0 50-6.3 72.2-18.9l63.8-36.3c16.1-9.2 21.7-29.7 12.6-45.8l-55.2-96.9zm30.8 121.9l-63.8 36.3c-42.8 24.4-94.2 20.8-148.4-10.3-55.5-31.8-110-91.4-153.5-167.9-43.5-76.4-67-153.7-66.1-217.6.9-62.5 24-108.5 66.8-132.9 2.9-1.6 6.1-3.2 10-5.1.9-.4 1.8-.9 2.6-1.3l51.5-29.3c2.3-1.3 4.8-1.6 7.4-.9 2.5.7 4.6 2.3 5.9 4.6l55.2 96.9c1.4 2.5 1.7 5.3.8 8-.9 2.7-2.8 4.7-5.5 5.8l-88 36.2c-19.1 7.9-30 28.2-25.9 48.4 10.2 50.6 29 100.1 55.8 147.2 27 47.3 60.2 88.9 98.7 123.7 15.3 13.7 38.3 14.7 54.8 2.3l75.8-57.1c2.3-1.7 5-2.3 7.9-1.7 3.4.7 5.4 2.9 6.4 4.7l55.2 96.9c2.7 4.5 1 10.5-3.6 13.1zm449.6-251.1h-.2l8.9-86.1c.3-3.4-.7-6.7-3-9.2-2.3-2.5-5.5-3.9-8.9-3.9H584.5c-3.4 0-6.6 1.4-8.9 3.9-2.3 2.5-3.4 5.9-3 9.2l39.7 384.2c.6 6.1 5.8 10.7 11.9 10.7h282.6c6.1 0 11.2-4.6 11.9-10.7l8.9-86.4h.6c59 0 107-48 107-107 .1-50.5-35.9-94.6-85.3-104.7zm-53.7 284.9H635l-37.3-360.4h335.7l-37.2 360.4zm34-97.1l17-164c37.4 8.7 64.3 42.4 64.3 81-.1 45.2-36.4 82-81.3 83z"/><path d="M765.2 541.2c-26.4 0-47.9-21.5-47.9-47.9s21.5-47.9 47.9-47.9h88c13.3 0 24.1-10.8 24.1-24.1s-10.8-24.1-24.1-24.1H660.3c-26.4 0-47.9-21.5-47.9-47.9s21.5-47.9 47.9-47.9h246c13.3 0 24.1-10.8 24.1-24.1s-10.8-24.1-24.1-24.1H777.8c-28.5 0-57.2-20-57.2-64.7 0-6.6 5.3-11.9 11.9-11.9s11.9 5.3 11.9 11.9c0 19.8 8.8 40.9 33.3 40.9h128.4c26.4 0 47.9 21.5 47.9 47.9s-21.5 47.9-47.9 47.9h-246c-13.3 0-24.1 10.8-24.1 24.1s10.8 24.1 24.1 24.1h192.8c26.4 0 47.9 21.5 47.9 47.9s-21.5 47.9-47.9 47.9h-88c-13.3 0-24.1 10.8-24.1 24.1s10.8 24.1 24.1 24.1c6.6 0 11.9 5.3 11.9 11.9.3 6.6-5.1 11.9-11.6 11.9z" fill="#48b7b6"/><path class="st0" d="M353.7 350.1h-.5c-5.1-.2-9.6-3.7-11-8.6l-21.3-73.9-14.1-7c-50.3-19-76-75.4-57.2-125.9 9.1-24.5 27.2-44 51.1-54.9 23.9-11 50.5-12 75-2.9l154.7 57.4c24.5 9.1 44 27.2 54.9 51.1 11 23.9 12 50.5 2.9 75-14.7 39.5-52.2 64-92.1 64-11.3 0-22.8-2-34-6.1l-77.7-28.8-19.6 53c-1.7 4.6-6.2 7.6-11.1 7.6zm23.8-87.9c1.4 0 2.8.2 4.1.7l88.9 33c38.4 14.2 81.2-5.4 95.5-43.8 6.9-18.5 6.1-38.7-2.2-56.8-8.3-18.1-23.1-31.8-41.6-38.7L367.5 99.2c-18.5-6.9-38.7-6.1-56.8 2.2-18.1 8.3-31.8 23.1-38.7 41.6-14.2 38.4 5.4 81.2 43.8 95.5.4.1.8.3 1.2.5l19.3 9.6c3 1.5 5.2 4.2 6.1 7.4l12.7 44.1 11.2-30.1c1.1-3 3.3-5.4 6.2-6.7 1.6-.8 3.3-1.1 5-1.1z"/><circle class="st0" cx="349.2" cy="171.7" r="15.8"/><circle class="st0" cx="419" cy="197.6" r="15.8"/><circle class="st0" cx="488.8" cy="223.5" r="15.8"/></svg>