<svg id="Layer_1" xmlns="http://www.w3.org/2000/svg" viewBox="0 0 1080 1080"><style>.st0{fill:#fff}</style><path class="st0" d="M193.3 635.1c3.8-5.9 15.6.6 15.3-6.7-.3-7.3-10.9-6.6-16.9-9C110 588.2 64.8 527.8 49.5 443.1c-.2-1.1-.1-2.3-.2-3.4-1.8-27.2-1.8-27.1 23.2-16.5 17.4 7.4 35.7 11.7 54.4 14.2 3.7.5 8.4 4.1 10.4-1 1.6-4.3-3.6-6.9-6.5-9-21.2-15.5-37.4-35.3-50.1-57.8-38.9-68.6-41.8-138.7-7.2-209.8 5.5-11.3 7.2-11.2 14.9-2.1 72.5 86.4 162.8 146.8 268.7 184.9 50.5 18.2 102.6 28 156 31.3 13.5.9 12.9.3 11.4-13.8-8.9-86.2 17-158.8 88.7-210.3 81.9-58.8 210.4-55.3 280.6 21.5 4.3 4.7 8.1 5.6 14.9 4 38.7-8.8 75.3-22.6 110.6-40.5 9.4-4.8 16.5-5.7 11.4 7.9-7 18.8-17.5 36.4-30.6 51.5-10.6 12.2-29.6 34.3-44.6 40.9-2.8 1.2-2.1 6.5.1 9.3 2.1 2.8 70.4-18 93.5-26.4 3.5-1.3 7.1-6 10.5-2.3 3.5 3.9-1.3 7.1-3.5 10.2-21.8 30.9-48.3 57.4-76.9 81.9-1.3 1.1-2.9 1.8-4.3 2.8-12.8 8.3-18.1 18.8-17.5 35.3 7.1 198.5-96.5 394.5-255.9 510.6-.1.1-.3.2-.4.3-21 15.2-42.9 29.1-65.7 41.4-173.3 93.8-386.3 95.1-563.6 12-19.7-9.2-38.8-19.5-57.3-31-1.8-1.1-4.9-2.1-3.8-4.8.9-2.2 4-1.6 6-1.2 103.5 17.4 213.1-20.9 296.7-80.5 2.5-1.8 7.2-3 5.4-7.4-1.2-2.7-5-1.9-7.7-2.3-24.2-4.1-48.2-9.1-70.4-20-52.2-25.8-90.6-64.5-112.1-119.2-.6-1.5-.1-3.4-.2-5.1 17 .1 34.1.4 51.1.2 4.8-.1 10.5 2.2 13.8-3.8z"/><path class="st0" d="M193.3 635.1c-3.2 6-9 3.7-13.7 3.7-17 .2-34.1-.1-51.1-.2-.3-1.1-.2-2.1.4-3 3.5-.1 6.9-.3 10.4-.4 18 0 36 0 54-.1z"/><path class="st0" d="M139.3 635.3c-3.5.1-6.9.3-10.4.4 3.2-5.7 6.8-3.2 10.4-.4z"/></svg>