<svg xmlns="http://www.w3.org/2000/svg" viewBox="0 0 1080 1080"><path d="M1071.8 255.2v33.7c-.3 3.1-.6 6.1-.9 9.2-.7 7.6-1 15.3-2.1 22.9-3.8 25.9-10.9 51-19.7 75.7-15.4 42.9-35.8 83.5-58.4 123-27.2 47.4-57.6 92.8-89.8 137-39.9 54.6-81.4 108.1-126.6 158.5-33 36.8-67.7 71.8-106.1 103-26.1 21.2-53.5 40.4-83.6 55.4-21.6 10.8-44.1 19.1-68 23.3-4.3.8-8.7 1.5-13 2.2h-28.4c-.5-.2-1.1-.6-1.6-.7-19.7-2.8-36.8-11.3-52.3-23.5-15.8-12.5-28.6-27.7-40-44.2-16.1-23.3-28.8-48.5-39.8-74.5-4.4-10.5-9.2-20.9-12.2-31.8-26-94.3-51.6-188.6-77.3-283-8.4-30.9-16.8-61.8-27.7-91.9-7.9-21.8-16.7-43.2-28.4-63.3-6.4-11-13.6-21.5-22.9-30.3-6.2-5.9-13-10.6-21.3-13.1-6.4-1.9-12.5-1.9-18.4 1.3-5.1 2.7-10.4 5.1-15.2 8.2C99.8 364 81.7 376 63.6 387.9c-1.7 1.1-3.3 2.2-5.2 3.5-16.9-21.7-33.4-43-50.1-64.5 2.5-2.2 4.6-4.1 6.6-5.9 39.7-35.4 79.6-70.6 119.1-106.2 26.8-24.1 53.7-48.1 82.8-69.5 19.4-14.3 39.4-27.6 61-38.5 21.5-10.8 43.9-16 68-14 20.8 1.7 39.8 8 56.8 20.3 13.2 9.6 23.8 21.6 32.5 35.3 12.3 19.2 20.5 40.2 26.8 61.9 6.6 22.4 10.3 45.4 14 68.5 6.8 41.2 13.5 82.4 20.4 123.6 6.8 40.8 14.3 81.4 24 121.5 6.6 27.4 13.8 54.6 23.9 81 5.7 14.9 12.1 29.5 21.3 42.7 3.8 5.5 8.2 10.5 13.6 14.5 8.3 6.2 17.2 7.1 26.7 3 6.2-2.7 11.6-6.5 16.7-10.7 10.7-8.9 20-19.3 28.7-30.1 19.1-23.6 35.7-48.9 51.6-74.7 15.8-25.6 30.8-51.8 43-79.4 9.9-22.3 18.5-45.1 20.4-69.7 1-12.9 1.3-25.7-1.4-38.4-5.3-25.2-20.3-41.1-45.6-46.8-17.6-4-35.2-3-52.8-.3-16.1 2.4-31.7 7-46.8 13-1 .4-2.1.5-3.5.9.5-1.7.7-2.9 1.1-4 7.4-23.2 15.9-46 26.3-68.1 15.6-33.1 34.6-63.9 59.3-90.9 28.7-31.4 62.9-54.8 103.1-69 29.5-10.4 60-15.1 91.2-15.8 19.7-.4 39.3.5 58.6 4.7 45.7 9.9 78.7 35.6 97.5 78.8 11.2 25.8 16.3 52.9 17.6 80.9.2 3.3.7 6.5 1 9.7z" fill="#fff"/></svg>