<svg id="Warstwa_1" xmlns="http://www.w3.org/2000/svg" width="99.4" height="28.3"><style>.st0{fill:#fff}</style><g id="Layer_1"><path class="st0" d="M69.4 0h30v28.3h-30V0zm23.9 9.2V6.1c0-.7 0-.7-.6-.9-2.6-1-5.2-1.6-8-1.4-2.1.1-4.1.7-5.9 1.8-3 1.9-4.6 4.6-4.8 8.1-.1 1.3.1 2.6.6 3.9 1.1 2.9 3 4.9 5.8 6 2.5 1 5.1 1.2 7.8.8 1.8-.3 3.5-.8 5.2-1.6.2-.1.2-.2.2-.3v-3.7c-.1.1-.2.1-.2.1-.8.4-1.6.9-2.5 1.3-2.4 1-4.8 1.4-7.4.8-1.6-.4-3-1-4-2.3-1.5-1.8-2-3.8-1.5-6.1.4-2.2 1.6-3.8 3.6-4.8 1.8-.9 3.8-1.2 5.8-.9 2.1.3 4 1 5.8 2-.1.2 0 .3.1.3zM0 28.3V0h30v28.3H0zm18.5-14.8c.1-.1.2-.1.2-.1.5-.3 1-.7 1.4-1.2 1.4-1.8 1.2-4.6-.4-6.3-1.3-1.3-3-1.8-4.8-1.9-2.2-.1-4.5 0-6.7 0H8v20.3h8.1c1.4 0 2.8-.3 4.1-1 3.4-1.7 3.7-6.3 1-8.5-.8-.6-1.7-1-2.7-1.3zM64.7 0v28.3h-30V0h30zM53.2 13.6c0-.1 0-.1 0 0l.2-.2c.6-.3 1-.7 1.4-1.2 1.4-1.8 1.2-4.6-.5-6.2-1.3-1.4-3-1.8-4.9-1.9-2.2-.1-4.4 0-6.7 0h-.3v20.3h8.1c1.5 0 2.8-.3 4.1-1 3.3-1.7 3.6-6.1 1.2-8.3-.6-.8-1.5-1.3-2.6-1.5z"/><path class="st0" d="M11.5 21.2v-5.5h4.1c.6 0 1.2.1 1.8.3 1.1.4 1.7 1.3 1.7 2.3 0 1.2-.6 2.1-1.7 2.5-.6.2-1.2.4-1.8.4h-4.1zm0-8.8V7.2h2.8c.5 0 1 .1 1.4.3 2 .8 1.9 3.2.7 4.1-.7.6-1.6.8-2.5.9l-2.4-.1c.1 0 .1 0 0 0zm34.7 8.8v-5.5h4.1c.9 0 1.8.2 2.6.8 1.3 1 1.3 3.1-.1 4.1-.6.4-1.3.7-2.1.7-1.5-.1-3-.1-4.5-.1zm0-8.8V7.2h2.9c.6 0 1.2.1 1.7.4 1.7.9 1.5 3.1.3 4-.7.5-1.5.8-2.4.8h-2.5z"/></g></svg>