<svg xmlns="http://www.w3.org/2000/svg" width="110.1" height="33.9"><path d="M82.7 19.6h-9.2v-.5h.6c1.2 0 1.5-.2 1.5-1.2V11c0-1.2-.2-1.5-1.2-1.5H74V9h8.3l.2 2.6H82c-.3-1.7-.4-1.8-1.6-1.8h-2.8v3.9h2.5c.9 0 1.1-.1 1.2-1.3h.5v3.4h-.5c-.1-1.2-.4-1.4-1.2-1.4h-2.5v3.1c0 1.1.1 1.2.9 1.2h1.8c1.3 0 1.7-.2 2-.8.1-.2.2-.5.4-1.1h.5l-.5 2.8zm-14.3 0h-9.2v-.5h.6c1.2 0 1.5-.2 1.5-1.2V11c0-1.2-.2-1.5-1.2-1.5h-.5V9h8.3l.2 2.6h-.5c-.3-1.7-.5-1.8-1.6-1.8h-2.8v3.9h2.5c.9 0 1.1-.1 1.2-1.3h.5v3.4h-.5c-.1-1.2-.4-1.4-1.2-1.4h-2.5v3.1c0 1.1.1 1.2.9 1.2h1.8c1.3 0 1.7-.2 2-.8.1-.2.2-.5.4-1.1h.5l-.4 2.8zm-19.7-.8c-2.1 0-2.9-.6-2.9-4V9.3h1.9c1.8 0 2.5.1 3.3.7 1.1.8 2 2.2 2 4 0 2.4-1.2 4.8-4.3 4.8M45.8 1c.5-.1 1.5-.1 2.2-.1 3.2 0 4.2 2.1 4.2 3.9 0 1.5-.6 2.7-1.5 3.1-.7.4-1.6.5-3 .5h-1.9V1zm9.4 12.7c-.1-2.5-1.4-4.2-3.7-5.1v-.1c1.7-.5 2.9-2.1 2.9-4 0-1.6-.8-3-2.1-3.7-1.4-.8-3.2-.8-5-.8-1.7 0-5.3.2-5.8.2h-.3v.6h.3c2 0 2.2.3 2.2 3.3v11.5c0 2.6-.3 3.3-2 3.3h-.6v.6h7.6c1.1 0 2.1-.1 2.8-.2 2.1-.5 3.8-2.8 3.7-5.6m51.4 6.2c-1.2 0-1.6-.3-2.1-.3-.2 0-.3.1-.4.2h-.4l-.4-2.9h.5c.4 1.6 1.4 2.4 2.8 2.4 1.2 0 2-.7 2-1.7 0-.7-.3-1.2-1-1.8-.2-.2-.6-.5-.9-.7-1.7-1.2-2.1-1.6-2.6-2.1-.4-.5-.6-1-.6-1.6 0-1.5 1.2-2.5 2.9-2.5 1.2 0 1.8.3 2.1.3.2 0 .3-.1.5-.2h.4l.4 2.7h-.5c-.5-1.4-1.5-2.1-2.7-2.1-.9 0-1.6.6-1.6 1.4 0 .7.3 1.1 1 1.7.4.3.9.6 1.4 1 1.5 1.1 2.1 1.6 2.5 2.4.2.3.2.7.2 1.2 0 1.4-1.4 2.6-3.5 2.6m-7.3-.2c-1.8 0-2.6-.1-5.3-3.1-1-1.1-1.5-1.4-1.5-1.4-.6 0-1.1.1-1.4 0v2.4c0 1.1.2 1.5 1.1 1.5h.5v.5h-5v-.5h.4c.8 0 1.1-.3 1.1-1.5V11c0-1.4-.2-1.5-1.5-1.5V9c1-.1 2.9-.1 3.9-.1 2.1 0 3 .2 3.8 1 .6.5.9 1.2.9 2 0 1.4-.7 2.3-2 2.9 0 0 .6.4 2.3 2.3 1.9 2.1 3.2 2.2 3.8 2.3v.5h-1.1v-.2zM93.5 10c-.5-.4-1-.5-1.9-.5-.2 0-.5 0-.6.1v5h.4c1 0 1.6-.2 2.1-.5.6-.4.9-1.1.9-2.1s-.3-1.6-.9-2m-63 9.6h-9.2v-.5h.6c1.2 0 1.5-.2 1.5-1.2V11c0-1.2-.2-1.5-1.2-1.5h-.4V9h8.3l.2 2.6h-.7c-.3-1.7-.4-1.8-1.6-1.8h-2.8v3.9h2.5c.9 0 1.1-.1 1.2-1.3h.5v3.4h-.5c-.1-1.2-.4-1.4-1.2-1.4h-2.5v3.1c0 1.1.1 1.2.9 1.2h1.8c1.3 0 1.7-.2 2-.8.1-.2.2-.5.4-1.1h.5l-.3 2.8zm-24.7 0H0V19h.4c1.7 0 2-.7 2-3.3V4.2C2.4 1.2 2.2.9.2.9H0V.3h.2C.7.3 6.3.1 8 .1c8 0 9.2 6.2 9.2 9.2 0 4.4-2.4 8.5-5.8 9.7-1.3.5-2.2.6-5.6.6m6.7-16.8c-1.1-1-2.4-1.5-4.1-1.7C7.5 1 7 .9 6.1.9c-.6 0-1 0-1.5.1v15.7c0 2.1.1 2.2 2.1 2.2 1.9 0 3.2-.2 4.4-.8 2.4-1.4 4-4.5 4-8.2-.1-3.1-1-5.6-2.6-7.1m50.8 28.8c0 1 .8 1.7 1.7 1.7s1.7-.7 1.7-1.7c0-.7-.6-1.7-1.7-1.7-1.2 0-1.7 1-1.7 1.7m4.1 0c0 1.3-1 2.3-2.4 2.3s-2.3-1-2.3-2.3c0-1.2.9-2.3 2.4-2.3 1.4 0 2.3 1.1 2.3 2.3m-26.8 0c0 1 .8 1.7 1.7 1.7s1.7-.7 1.7-1.7c0-.7-.6-1.7-1.7-1.7-1.2 0-1.7 1-1.7 1.7m4.1 0c0 1.3-1 2.3-2.4 2.3s-2.3-1-2.3-2.3c0-1.2.9-2.3 2.4-2.3 1.4 0 2.3 1.1 2.3 2.3m14.1-3.7c-1.8 0-3.1 1.3-3.1 3 0 1.2.8 3 3.1 3 .8 0 1.5-.2 2.1-.5v-.7c-.6.4-1.3.6-2 .6-1.6 0-2.5-1.2-2.5-2.4 0-1.4 1.1-2.4 2.5-2.4.6 0 1.3.2 2 .5v-.7c-.4-.1-1.2-.4-2.1-.4m-51.1 0c-2 0-3.2 1.6-3.2 3s1 2.9 3.2 2.9c.9 0 1.6-.3 2.1-.5v-2.4H8v.6h1.2v1.4s-.7.3-1.4.3c-1.5 0-2.5-1-2.5-2.4 0-1.5 1.2-2.4 2.4-2.4.4 0 1.1.1 2 .6v-.6c-.6-.3-1.2-.5-2-.5m97.5 2.5c-.4-.4-.7-.5-1-.5-.4 0-.7.2-.7.5 0 .4.3.5 1.1 1 .2.1.4.3.6.5.1.2.2.4.2.7 0 .7-.5 1.2-1.3 1.2-.4 0-.9-.1-1.2-.4v-.8c.1.2.5.7 1.2.7.3 0 .7-.2.7-.6s-.4-.6-.6-.8c-.7-.4-.9-.5-1.1-.8-.1-.2-.2-.4-.2-.7 0-.7.5-1.2 1.3-1.2.4 0 .7.1 1 .3v.9zm-4.9-.4h-1.9v1.3h1.8v.6h-1.8v1.4h1.9v.6h-2.6v-4.4h2.5v.5h.1zm-5.4 3.8h-.6v-4.4h.6v4.4zm-3.6 0h-.5l-3-3.4v3.4h-.6v-4.4h.5l3 3.4v-3.4h.6v4.4zm-7.7-1.9l-.7-1.6-.7 1.6h1.4zm1.5 1.9h-.7l-.6-1.3h-1.9l-.6 1.3h-.7l1.9-4.5h.5l2.1 4.5zm-8-3.9v1.4h.5c.3 0 .5 0 .7-.1s.3-.3.3-.6c0-.2 0-.4-.2-.5-.2-.2-.4-.2-.8-.2h-.5zm.5-.5c.5 0 .9 0 1.3.4.2.2.3.5.3.9 0 .2 0 .6-.4.9-.3.3-.6.4-1.3.4H77v1.9h-.6v-4.4h1.2v-.1zm-3.9 4.4h-.6v-3.5L71.7 32h-.1l-1.4-1.7v3.5h-.6v-4.4h.6l1.5 1.8 1.5-1.8h.6v4.4h-.1zM49.5 30h-1.7v1.2h1.7v.6h-1.7v2.1h-.6v-4.4h2.4l-.1.5zm-17.9-.1v1.4h.5c.3 0 .5 0 .7-.1s.3-.3.3-.6c0-.2 0-.4-.2-.5-.2-.2-.4-.2-.8-.2h-.5zm.5-.5c.5 0 .9 0 1.3.4.2.2.3.5.3.9 0 .2 0 .6-.4.9-.3.3-.6.4-1.3.4h-.4v1.9H31v-4.4h1.1v-.1zm-4 2.5c0 .4 0 1-.5 1.5-.4.4-.9.5-1.4.5-.6 0-1.3-.2-1.7-.8-.2-.4-.2-.9-.2-1.2v-2.5h.6v2.5c0 .6.1.8.3 1s.5.4 1 .4c.7 0 1-.4 1.1-.6s.1-.4.1-.8v-2.5h.6l.1 2.5zm-10-.3c0 1 .8 1.7 1.7 1.7.9 0 1.7-.7 1.7-1.7 0-.7-.6-1.7-1.7-1.7-1.2 0-1.7 1-1.7 1.7m4.1 0c0 1.3-1 2.3-2.4 2.3s-2.3-1-2.3-2.3c0-1.2.9-2.3 2.4-2.3 1.3 0 2.3 1.1 2.3 2.3m-9-1.7v1.4h.2c.1 0 .4 0 .6-.1.3-.1.4-.4.4-.6 0-.3-.1-.5-.3-.6-.2-.1-.4-.1-.9-.1.1 0 0 0 0 0zm.4-.5c.2 0 .5 0 .8.1.5.2.7.6.7 1.1s-.3.9-.7 1.1c.4.3.7.7 1 1.2.2.3.3.5.6.9h-.8c-.2-.2-.8-1.2-.9-1.4-.4-.6-.7-.6-1-.6h-.2v1.9h-.6v-4.4l1.1.1z" fill="#fff"/></svg>