<svg xmlns="http://www.w3.org/2000/svg" width="126.8" height="24.2"><circle cx="123.4" cy="20.7" r="3.4" fill="#878787"/><path d="M12.9 11.7c0-2.2-.4-3.8-1.2-4.8-.9-1-2.1-1.6-3.8-1.6H6.1v13.2h1.3c1.9 0 3.3-.5 4.2-1.7.9-1.1 1.3-2.8 1.3-5.1m6.4-.2c0 3.9-1.1 7-3.2 9.1-2.1 2.1-5 3.2-8.8 3.2H0V.2h7.9c3.6 0 6.5 1 8.5 2.9 1.8 2 2.9 4.8 2.9 8.4M39.6 0h5.8v23.8h-5.8V0zm14 15c0 1.5.2 2.7.6 3.5.4.7 1 1.2 1.9 1.2s1.5-.4 1.9-1.2c.3-.8.5-2 .5-3.5s-.2-2.7-.5-3.4c-.4-.7-1.1-1.2-1.9-1.2-.9 0-1.5.4-1.9 1.2-.4.7-.6 1.9-.6 3.4m11 0c0 2.9-.7 5.1-2.3 6.7-1.5 1.6-3.6 2.4-6.2 2.4-2.5 0-4.6-.8-6.1-2.4s-2.3-3.9-2.3-6.7c0-2.9.7-5.1 2.2-6.7 1.5-1.6 3.5-2.4 6.3-2.4 1.6 0 3.1.3 4.4 1.1 1.3.7 2.3 1.8 2.9 3.2.8 1.4 1.1 2.9 1.1 4.8m2.3-8.9h5.9v17.7h-5.9V6.1zm0-6.1h5.9v4h-5.9V0zm17.8 19.3c.7 0 1.7-.2 2.8-.6v4.5c-.8.3-1.6.6-2.3.8-.7.1-1.5.2-2.5.2-2 0-3.4-.5-4.3-1.5-.9-1-1.4-2.5-1.4-4.6v-7.3h-2V6.2h2V1.7L82.9.6v5.5h3.8v4.6h-3.8v6.9c.2 1.1.7 1.7 1.8 1.7m13.5 0c.8 0 1.8-.2 2.8-.6v4.5c-.7.3-1.6.6-2.2.8-.7.1-1.6.2-2.5.2-2 0-3.4-.5-4.3-1.5-.9-1-1.3-2.5-1.3-4.6v-7.3h-2.1V6.2h2.1V1.7l5.9-1v5.5h3.7v4.6h-3.7v6.9c0 1 .6 1.6 1.6 1.6m10.1-6.5c.1-1 .3-1.7.8-2.2.5-.4 1.1-.6 1.8-.6s1.3.2 1.8.7c.4.5.7 1.2.7 2l-5.1.1zm8.3-4.9c-1.4-1.4-3.4-2-5.9-2-2.7 0-4.8.8-6.2 2.4-1.5 1.6-2.2 3.9-2.2 6.8s.8 5.1 2.4 6.7c1.6 1.6 3.8 2.3 6.6 2.3 1.3 0 2.6-.1 3.5-.3 1-.1 2-.5 2.8-1l-.9-4c-.7.3-1.3.5-1.9.7-.9.1-1.8.3-2.8.3-1.1 0-2-.3-2.7-.8-.7-.6-1-1.4-1.1-2.3h10.5V14c0-2.6-.7-4.6-2.1-6.1M27 12.8c.1-1 .4-1.7.9-2.2.4-.4 1-.6 1.7-.6s1.3.2 1.8.7c.4.5.7 1.2.7 2l-5.1.1zm8.3-4.9c-1.4-1.4-3.3-2-5.9-2-2.7 0-4.8.8-6.2 2.4-1.5 1.6-2.1 3.9-2.1 6.8s.7 5.1 2.3 6.7c1.5 1.6 3.7 2.3 6.5 2.3 1.4 0 2.6-.1 3.5-.3 1-.1 1.9-.5 2.9-1l-.9-4c-.7.3-1.3.5-1.9.7-.9.1-1.8.3-2.8.3-1.1 0-2-.3-2.7-.8-.7-.6-1-1.4-1-2.3h10.4V14c-.1-2.6-.7-4.6-2.1-6.1" fill="#fff"/></svg>