<svg id="Warstwa_1" xmlns="http://www.w3.org/2000/svg" width="174" height="49.4"><style>.st0{fill:#fff}</style><g id="Layer_1"><path class="st0" d="M34.3 35.4c0 .2-.1.3-.1.5-.3 1-.8 1.8-1.6 2.4-.3.3-.7.4-1.2.4h-5.1l-.2.2v6.4h7.4c.7 0 1.3-.2 1.8-.6.2-.1.3-.3.4-.5.4.9.6 1.7.8 2.6.3.9.6 1.7.8 2.6H18.7l.7-.7c.5-.4.7-.9.9-1.5v-4.1c-.1.1-.1.2-.2.3-.3.7-.7 1.4-1.2 2-.5.7-1.1 1.4-1.9 2-.5.4-1 .7-1.6 1-.5.3-1.1.4-1.6.6-.7.2-1.5.2-2.2.2-1.8.2-3.6.1-5.5.1H0c.3-.3.5-.5.8-.7.2-.2.4-.4.6-.7.2-.5.3-.9.3-1.5V28.7c0-.7-.3-1.2-.7-1.8-.2-.3-.5-.6-.8-.8H0V26h11.2c.3 0 .7.1 1 .1s.7.2 1 .2c.6.1 1.1.3 1.7.5.8.3 1.4.7 2.1 1.1.4.3.6.7 1 .8l1.2 1.5c.2.3.4.6.5.9.2.4.4.9.6 1.3v-4.3c-.3-1-.9-1.5-1.5-2.1H37c-.3 1.7-.6 3.5-1 5.2-.1-.1-.1-.1-.2-.1-.5-.7-1.1-1.1-2.1-1.1h-7.8v5.3c0 .2-.1.4.3.5h6c.5 0 .9-.1 1.4-.1.3-.1.5-.3.7-.3zM7.4 45.5c1-.1 2 .1 3-.1.6-.1 1.2-.3 1.7-.5 1.3-.6 2-1.7 2.5-2.9.1-.4.2-.7.3-1.1.1-.4.2-.8.2-1.2 0-.5.1-1.1.1-1.6 0-.6.1-1.3-.1-1.9-.1-.3-.1-.6-.1-1-.1-.6-.3-1.2-.5-1.8-.4-1-1.1-1.8-1.9-2.5-.4-.3-1-.6-1.5-.8s-1-.3-1.5-.4c-.7-.1-1.5 0-2.2 0v15.8zm13.7-9.7c0 .2-.1.5-.1.6-.2.6-.3 1.1-.4 1.7s-.3 1.1-.5 1.7-.6 1.1-1.1 1.6h-.8c-.1-.1-.2-.3-.4-.5 0 0-.1 0-.2.1.1.4.4.6.6.8h1c.3-.3.8-.4.9-.8.5-.5.6-1.1.8-1.7.2-.6.4-1.3.5-1.9.1-.5.3-1.1.4-1.6.7-.1 1.3.1 1.9-.1l.5-.5c-.2 0-.3.1-.5.1H22c.1-.8.4-1.4 1-1.9.4-.3.7-.1 1.1.1.1.1.1.3.2.5v-.6c-.2-.2-.5-.4-.7-.6-.4 0-.7 0-1 .1-.6.4-1 .8-1.2 1.4l-.3.9h-2.9c-.5.2-1 .4-1.3.9-.3.4-.5.8-.6 1.3s0 1 .2 1.5c.2.2.5.4.6.5 1.1.1 1.9-.3 2.4-1.3.2-.4.3-.8.3-1.2 0-.4-.1-.9-.5-1.2h.4c.6.1 1 .1 1.4.1zM19.5.2c-.1.3-.2.6-.4.9.3-.1.6-.2.8-.3v1.3c-.2-.1-.4-.1-.6-.2-.1.1-.2.2-.3.4.1.1.2.3.4.4.3.1.7.2 1 .1.1-.1.2-.1.4-.2 0-.1-.1-.3-.1-.4-.2.1-.3.2-.4.2-.3-.3-.1-.5 0-.8.2.1.5-.1.7.1V.9c.1-.1.2-.1.4-.3 0 0 .1 0 .3.1v.9l.6.3v.5l-.2.2c-.2-.1-.3-.3-.5-.4-.1.2-.2.3-.3.4.1.1.3.2.5.4.3 0 .7.1 1 .1.2-.1.3-.2.5-.3-.3-.1-.5-.1-.7-.2.1-.2.2-.5.3-.8.2.1.4.2.6.4 0-.3 0-.6.1-.9.3.2.6.3.8.4-.3.5-.5 1-.8 1.5 0 .1.1.2.1.3 0 .2-.1.4-.2.5-.2.5-.2.5-.2 1-.3.3-.8.4-1.2.5-.4.1-.8.1-1.2.1-.6.1-1.1.1-1.7.1h-1.8c-.2 0-.5-.1-.7-.1s-.5 0-.7-.1-.4.1-.6-.1c-.4.1-.7-.2-.9-.5v-.6c-.1-.2-.2-.3-.4-.5v-.6c-.3-.6-.5-1-.8-1.5.3-.2.6-.3.9-.5v.9c.3 0 .4-.2.6-.4.1.3.2.6.4.8l-.1.1-.1-.1c-.2 0-.3.1-.5.2.3.4.8.3 1.2.3.2-.1.4-.2.7-.4-.1-.2-.1-.3-.2-.5-.3-.1-.4.1-.5.4-.2-.1-.3-.3-.4-.4.1-.2.1-.3.2-.5.2-.1.4-.1.5-.2 0-.2-.1-.5-.1-.7l.3-.3h.3c.1.1.2.3.3.4v.6c.1 0 .2-.1.3-.1h.4l.3.3c0 .2.1.4-.2.5-.1-.1-.2-.1-.3-.2-.1.1-.2.2-.2.3.1.1.3.2.4.4.4 0 .8.1 1.3-.3 0-.1.1-.2.1-.3-.1-.1-.1-.2-.2-.3-.2.1-.4.1-.6.2V.7c.2 0 .4.1.7.1-.1-.3-.2-.6-.2-.8 0 .2.5.2.9.2zm3.1 4.4l-.1-.2c-.1 0-.1-.1-.2-.1-.8-.3-1.7-.4-2.5-.4-.9 0-1.7-.1-2.6.1-.4-.1-.7.1-1.1.1-.4.1-.8.1-1.1.6h.3c.5-.2 1.1-.2 1.7-.3s1.1 0 1.7-.1c.2 0 .4.1.6.1h.9c.3 0 .6.1.9.1.2 0 .3 0 .5.1h1zm-.1.4c-.1-.1-.2-.1-.3-.2-.4-.3-.9-.2-1.3-.3-.7.1-1.5-.1-2.2-.1-.3 0-.5.1-.8.1h-1c-.3 0-.6.1-.9.1-.2 0-.8.2-.8.3-.1.1-.1.2-.1.3.2.1.3.1.5.2.1-.1.2-.1.2-.2V5c.1-.1.2-.1.3-.2h.7c.3 0 .5-.1.7-.1 1 .1 2-.1 3 .1h.6c.2 0 .4.1.6.1 0 .3.1.5.4.4.2 0 .3-.1.4-.3zm-1-1.8c-.3-.2-.6-.3-.9-.2 0 .1-.1.2-.1.4.2.1.3.2.4.3h.6v-.5zm-4.8.4l.4-.4c-.1-.1-.1-.2-.2-.3-.4 0-.9.3-.9.5.1 0 .1.1.2.1l-.1.1h.6zm2.2-.1c.2-.1.3-.2.5-.3-.1-.2-.3-.3-.6-.4-.2.1-.4.1-.5.4.1.2.3.3.6.3zm-4.5.6c.2-.2.3-.4.5-.5-.2-.1-.4-.3-.7-.2 0 .2.1.5.2.7zm8.6 0c.3-.2.3-.2.2-.7-.2.1-.4.1-.6.2.2.1.3.3.4.5zM12 8.2c-.8-.8-1.8-1.2-2.9-1.1.7-.2 1.3-.3 2-.2s1.3.5 1.8.8c.6-.2 1.3-.5 2-.5.1 0 .3 0 .5-.1.3.2.6 0 1 .1-1 .2-2 .5-2.8 1 1.5 1.6 2.4 3.5 3.3 5.4.3 0 .5-.3.7-.5.1-.2.2-.3.4-.5.4-.3.6-.8.9-1.2.3 0 .4.4.5.6.4.6.9 1.1 1.4 1.6.3 0 .3-.3.4-.4.1-.5.4-.8.6-1.2l.6-1.2c.3-.6.7-1.1 1.1-1.7.1-.2.2-.3.4-.4.1-.2.2-.3.4-.5-.9-.5-1.8-.7-2.6-1 .3-.1.7 0 1-.2.2.1.4.1.6.1.5 0 1 .2 1.5.3.1 0 .1.1.2.1.1-.1.3-.2.4-.3.5-.3 1-.6 1.6-.6.1 0 .3.1.4-.1h.1c.5.2 1 0 1.5.4-.7-.1-1.4 0-2 .3-.4.2-.7.5-1.1.7.3.2.5.4.7.5.9.8 1.5 1.8 1.8 3-.1.5.3 1 0 1.5 0 .7-.3 1.3-.7 1.8-.3.4-.6.7-1 .9-.3.2-.8.3-1.3.5-.3.1-.5.1-.8.1s-.6 0-.9-.1c-.6-.2-1.3-.4-1.8-.8-.2.7-.5 1.3-.9 2-.3.6-.7 1.3-1.1 1.8.2.2.3.5.5.7.4.5.8.9 1.2 1.3.5.4 1 .8 1.6 1.1.6.2 1.2.5 1.9.4h.8c.2 0 .4-.2.7-.1.1 0 .2-.1.3-.1-.2.3-.3.4-.7.6-.7.4-1.5.5-2.4.4-.3 0-.7-.1-1-.3s-.7-.2-1-.5c-.3-.2-.6-.3-.9-.6s-.7-.5-1-.8c-.2-.2-.4-.3-.5-.5s-.3-.3-.5-.5l-1.1 1.1c-.7.7-1.5 1.2-2.4 1.7-.8.4-1.7.6-2.5.4-.7-.1-1.4-.4-1.9-1 .2 0 .4 0 .6.1.6.2 1.2.1 1.8.1.3 0 .6-.1.9-.2l1.2-.6c.7-.5 1.3-1.2 1.9-1.8.2-.2.4-.5.5-.7v-.1c-.3-.6-.7-1.2-1-1.9-.3-.6-.6-1.2-.8-1.9-.3.1-.6.3-1 .4-.3.2-.7.2-1 .3s-.7.2-1 .1c-.5 0-.9-.1-1.4-.3s-.8-.5-1.2-.8c-.3-.3-.5-.6-.7-1-.2-.3-.2-.8-.4-1.1.1-.5-.1-1 .1-1.5.2-.6.3-1.1.6-1.6.4-.8 1-1.4 1.7-1.9 0 .4.1.3.2.2zm10 6.5c.5.3 1 .4 1.5.5 1 .1 2-.2 2.7-1 .4-.4.6-.9.6-1.5 0-.4 0-.8-.1-1.2s-.3-.8-.5-1.2c-.3-.5-.7-1-1.2-1.4h-.2c-.8.9-2.6 4.8-2.8 5.8zm-9.4-5.9c-.3.3-.5.6-.8.8s-.4.5-.6.8c-.3.5-.5 1.1-.5 1.7-.1.2 0 .4 0 .6 0 .7.3 1.2.8 1.6.6.5 1.3.7 2.1.8.4 0 .7-.1 1-.1.3-.1.7-.2 1.1-.4l-.3-.6c-.2-.6-.5-1.2-.7-1.8-.3-.7-.7-1.4-1.1-2.1-.4-.4-.7-.8-1-1.3zm6.1 9.2c.4-.5.6-1.1.9-1.6s.5-1.1.7-1.6c-.6-.6-1.1-1.2-1.6-1.9-.4.7-1 1.3-1.5 1.8l1.5 3.3zm124.6 31.1h-1.1c-.1-.2-.2-.4-.2-.6-.1-.5-.2-1-.4-1.5s-.3-1-.4-1.5c-.1-.6-.3-1.1-.4-1.7-.1-.5-.3-1.1-.4-1.6-.1-.5-.4-1-.4-1.5l-.1-.1h1.2c.5 2.3 1.1 4.6 1.7 7 .3-.8.4-1.5.6-2.2.1-.3.2-.7.3-1 .2-.6.3-1.2.5-1.8l.3-1.2.3-.9h1.2c.2.8.4 1.5.6 2.3.1.5.3.9.4 1.4.2.6.3 1.3.5 1.9.1.4.2.8.4 1.3.6-2.4 1.1-4.7 1.7-7h1.1c0 .2 0 .3-.1.5-.2.4-.2.9-.4 1.4-.1.5-.2 1-.4 1.5-.2.7-.4 1.4-.5 2-.1.4-.2.9-.4 1.3-.1.5-.3 1-.4 1.5 0 .1-.1.2-.1.3h-1.1c-.2-.9-.5-1.8-.7-2.7-.1-.6-.3-1.1-.5-1.7-.1-.3-.1-.7-.3-1-.1-.3-.2-.7-.3-1 0-.2-.1-.4-.2-.7-.1.1-.1.2-.1.2-.1.5-.3.9-.4 1.4-.1.6-.3 1.2-.5 1.8-.2.5-.3 1-.4 1.5-.2.7-.3 1.3-.6 2v.4zM82 44.6c.8.3 1.2.6 1.4 1.3.1.2 0 .5.1.7.1.5-.1 1-.4 1.4-.3.5-.8.7-1.3.9h-.1c-.4 0-.9.1-1.3.1h-3.6v-8.5h3.9c.3 0 .6.1.9.2.6.1 1 .6 1.2 1.1s.2 1 0 1.5c-.2.4-.4.8-.8 1 .1.2.1.3 0 .3zm-4 3.5h3.4c.6-.2.9-.7.9-1.3v-.5c-.2-.7-.7-.9-1.2-.9-1-.1-2.1 0-3.1 0v2.7zm0-6.6v2.7h2.9c.5-.2.8-.4 1-.9v-.8c0-.1-.1-.1-.1-.2-.1-.3-.2-.4-.5-.5-.3-.2-.7-.2-1.1-.2-.7-.1-1.4-.1-2.2-.1zm-4.2 7.6c-1.5-2.2-2.9-4.4-4.3-6.7h-.1V49c-.4 0-.8.1-1.1-.1v-8.4h1.2c1.4 2.2 2.9 4.5 4.4 6.8v-6.7H75v8.3l-.1.1c-.3.1-.7.1-1.1.1zm35-5.9h-1.1c-.1-.5-.3-1-.7-1.3-.3-.2-.5-.3-.8-.4-.5-.1-1-.1-1.4-.1-.2 0-.4.1-.6.2-.8.3-1.2.9-1.5 1.7-.1.3-.2.7-.3 1 0 .4-.1.9 0 1.3.1.5.2.9.5 1.4.2.3.4.5.7.7.4.4 1 .6 1.6.6.5 0 1 0 1.4-.3.5-.2.8-.5 1.1-1 .3-.6.3-.8.3-1.5h-2.6v-1h3.6V49h-.7l-.3-.9c-.2.2-.4.3-.7.5-.5.4-1.1.6-1.7.6h-.6c-1 0-1.8-.4-2.5-1-.6-.5-.9-1.2-1.2-2-.1-.2 0-.5-.1-.7 0-.7 0-1.4.2-2.1.1-.4.2-.7.4-1s.3-.7.6-.9c.4-.4.9-.8 1.5-.9.2-.1.5-.2.7-.1.1 0 .2-.1.3-.1h.2c.6.1 1.3.1 1.9.4.8.4 1.4 1 1.6 1.9.1.1.2.3.2.5zm-15.3-2.6h4.3c.7 0 1.4.2 1.8.8.4.6.6 1.2.4 1.9 0 .1 0 .3-.1.4-.2.6-.5.9-1.2 1.2.2.1.4.2.6.4.4.3.5.8.6 1.2.1.5.1 1.1.1 1.6 0 .3.2.5.3.7 0 .1.1.1.1.2h-1.2c-.1-.2-.1-.4-.2-.6-.1-.5-.1-1-.1-1.5 0-.3-.2-.6-.3-.9-.3-.4-.8-.6-1.3-.6h-2.6V49h-1.2v-8.4zm1.3 4h2c.3 0 .6-.1 1-.1.3 0 .6-.2.8-.4.2-.2.4-.6.4-.9 0-.7-.2-1.2-.8-1.5-.3-.1-.7-.1-1-.1h-2.4l-.2.2v2.8c.1-.1.1-.1.2 0zm70.7-1c-.3.7-.6 1.3-1.4 1.4.2.1.3.1.4.2.5.2.7.6.7 1 .1.4.2.8.1 1.2-.1.4.2.8.1 1.1l.3.6h-1.2c-.2-.2-.3-.4-.3-.7v-.5c0-.7-.1-1.4-.5-2.1l-.6-.3H160v3.4l-.2.2h-.9v-8.5h4c.4 0 .9.1 1.3.3.6.3 1.3 1.1 1.2 1.7.1.3.1.7.1 1zm-1.1 0v-.7c0-.2 0-.4-.2-.6s-.4-.5-.7-.6-.6-.1-.9-.1h-2.4v3h2.4c.3 0 .6-.1.8-.2.5-.1.8-.4 1-.8zm2.7 5.5v-8.5c1.1 0 2.3-.1 3.4 0 .7 0 1.3.2 1.9.5.8.5 1.3 1.2 1.5 2.1.2.8.1 1.7.1 2.5 0 .3-.1.7-.2 1-.1.3-.3.7-.5.9-.3.3-.6.6-.9.8-.4.2-.8.4-1.2.5-.4 0-.9.1-1.3.1-.9.1-1.8.1-2.8.1zm1.2-1h2.6c.6-.2 1-.5 1.4-1 .3-.4.5-.9.5-1.4 0-.8.1-1.5-.1-2.3-.2-.8-.8-1.6-1.6-1.8-.5-.1-.9-.2-1.4-.2h-1.5c.1 2.4.1 4.5.1 6.7zm-111.4 1v-8.5h3c.6 0 1.1.1 1.7.3 1 .3 1.7.9 2 2 .1.4.3.9.2 1.3 0 .1 0 .2.1.4.1.1.1.2 0 .3-.1.2-.1.5-.1.7-.1 1.1-.4 2.1-1.3 2.8-.3.3-.7.5-1.2.6-.3.1-.6 0-.9.1-.6.1-1.1.1-1.7.1-.6-.1-1.2-.1-1.8-.1zm1.1-1h2.3c.3 0 .5-.1.7-.2 1-.5 1.5-1.3 1.6-2.4v-.4c.1-.2.1-.4.1-.6-.1-.3-.1-.5-.1-.8-.1-.4-.2-.9-.4-1.2-.3-.4-.7-.9-1.4-.9-.1-.2-.3-.1-.5-.1s-.3-.1-.5-.1H58l-.2.2c.2 2.2.2 4.3.2 6.5zm17.5-13.7V26h2.7c1.5-.1 3.1.5 3.8 2 .3.6.4 1.4.4 2.1 0 .9-.1 1.8-.5 2.6-.5.9-1.3 1.5-2.3 1.7-.2 0-.4.1-.6.1-1.1-.1-2.3-.1-3.5-.1zm1.2-.9h1.6c.6 0 1.2-.1 1.7-.4 1-.6 1.3-1.9 1.3-3s-.3-2.4-1.3-2.9c-.4-.2-.8-.2-1.2-.3-.2 0-2.2-.1-2.2 0 .1 2.2.1 4.4.1 6.6zm33.7-3.4c-.1-.8.2-1.6.6-2.4.5-1 1.4-1.5 2.3-1.9.5 0 .9-.2 1.4-.1.5.1 1.1.1 1.6.4.5.3.9.6 1.3 1.1.3.5.7 1 .8 1.6.1.7.3 1.4 0 2.1 0 .4-.1.7-.2 1-.4 1.2-1.2 2.1-2.4 2.4-1.2.3-2.4.2-3.5-.4-.4-.2-1-.9-1.2-1.3-.1-.3-.3-.5-.4-.8-.1-.4-.2-.9-.2-1.3-.1 0-.1-.2-.1-.4zm1.1.1c0 .4 0 .8.1 1.3.3.8.7 1.4 1.4 1.9l.1.1c.4.1.8.3 1.3.3.2 0 .4 0 .6-.1.7-.2 1.3-.6 1.7-1.3.2-.4.5-.9.5-1.4.3-.7.1-1.3 0-2-.1-.6-.4-1-.9-1.5s-1-.8-1.7-.7h-.7c-.1 0-.2 0-.3.1-.7.2-1.2.7-1.6 1.3-.4.6-.5 1.3-.5 2zm17.1 17.2c0 .1-.1.1-.1.2-.4.9-1 1.2-2 1.5-.7.2-1.4.1-2.1.1-.7-.1-1.3-.3-1.8-.8-.3-.3-.6-.7-.7-1.2-.1-.3-.1-.6-.1-.9h1c.1.2-.1.4.1.6.2.8.8 1.1 1.4 1.3.5.2 1 .2 1.4.1.6-.1 1.3-.2 1.6-1 0-.1.1-.3.1-.5s0-.3-.1-.5c-.3-.3-.5-.6-1-.7-.3-.1-.7-.2-1.1-.3-.5-.1-1.6-.4-2.2-.7-.5-.2-.8-.5-1-1l-.1-.1v-.9c0-.4.2-.8.5-1.1.4-.4.8-.7 1.4-.9.1 0 .3-.1.4-.1.2 0 .4.1.6-.1h.1c.6.1 1.2.1 1.8.4.3.2.7.4.9.7.2.5.6 1 .4 1.6h-1c0-.1-.1-.3-.2-.5-.4-.8-.8-1.2-1.8-1.2-.4 0-.7 0-1.1.1-.4.1-.6.4-.8.6s-.2.5-.2.7v.3l.6.6h.3c.4.3.9.3 1.3.4.5.1 1 .3 1.5.4.3.1.5.2.8.4.5.4.8.8.8 1.5.4.4.4.8.4 1zm-18-6.8h1.1v3.6h4.4v-3.6h1.1v8.5h-1.1v-3.8h-4.4V49l-.2.2h-1c.1-2.9.1-5.7.1-8.6zm-55.1 0v.9h-4.6l-.2.2v2.6h4.4v1h-4.4v2.8h4.7v1H50c-.2 0-.4.1-.5-.2v-8.3h6zm1-14.6h1.1v3.6H62V26h1.1v8.4H62v-3.8h-4.2l-.2.2v3.7h-1.1V26zm35.9 0h1.1v4.1l4.1-4.1h1.7c-.6.6-1.2 1.1-1.8 1.7-.6.6-1.2 1.1-1.7 1.7 1.2 1.6 2.4 3.3 3.6 4.9-.5.1-.9 0-1.4 0-.4-.6-.8-1.2-1.3-1.9-.5-.6-.9-1.2-1.4-1.9-.1-.1-.1-.2-.1-.2-.1-.1-.2-.1-.3-.2l-1.3 1.3v2.8h-1.1c-.1-2.6-.1-5.4-.1-8.2zm-26.3 3.6h4.4c.1.3 0 .6 0 .9h-4.3l-.2.2v2.8h4.7v.9c-.4.1-4.3.1-5.9 0V26h5.9v.9h-4.3c-.2 0-.4-.1-.4.2.1.8.1 1.6.1 2.5zm35.3 3.9h4.7v.9h-5.9V26h5.8v.9h-4.6v2.7h4.4v.9h-4.4v3zM83.8 26h1.1v5.5c0 1.1.5 1.7 1.4 2 .5.2 1 .2 1.5.1.4-.1.8-.3 1.1-.6.2-.2.3-.4.3-.7.1-.3.2-.7.2-1V26h1.1v5.6c0 .6-.2 1.2-.4 1.7-.4.7-1 1-1.8 1.3-.6.2-1.3.1-1.9.1-.7-.1-1.3-.3-1.9-.8-.2-.2-.3-.5-.5-.7-.1-.2-.3-.5-.3-.8-.2-.5-.1-1-.1-1.4.2-1.8.2-3.4.2-5zm6.7 14.6h1.1v5.9c0 .6-.2 1.1-.5 1.6s-1 .9-1.6 1.1c-.7.2-1.4.1-2.1.1-.5 0-.9-.2-1.3-.5s-.7-.6-.9-1c-.1-.1-.3-.9-.3-1.1v-6H86v5.7c0 .7.5 1.6 1.4 1.9.7.2 1.4.2 2.1-.1.5-.2.7-.6.8-1.1.1-.2.1-.5.1-.7.1-1.9.1-3.8.1-5.8zm62 5.9c-.3.9-.6 1.7-.9 2.6h-1.1c0-.2 0-.3.1-.4.4-1 .8-1.9 1.2-2.9.2-.5.4-1.1.6-1.6.2-.5.4-1 .6-1.6.1-.3.2-.7.4-1 .1-.3.2-.7.4-1h1.3c1.1 2.8 2.2 5.6 3.3 8.5h-1.3c-.3-.9-.6-1.7-.9-2.6h-3.7zm1.8-4.8c-.5 1.4-.9 2.6-1.4 3.9h2.8c-.5-1.3-.9-2.6-1.4-3.9zm-19.9 4.8c-.3.9-.6 1.7-1 2.6h-1.1c-.1-.3.1-.5.1-.7.3-1 .8-1.9 1.1-2.8.1-.4.4-.8.5-1.3.3-.8.7-1.7 1-2.5.1-.4.3-.8.5-1.2h1.3c1.1 2.8 2.2 5.6 3.3 8.5h-1.2c-.5-.8-.6-1.7-1-2.6h-3.5zm1.8-4.8c-.5 1.3-.9 2.6-1.4 3.9h2.8c-.2-.7-.5-1.3-.7-2-.2-.6-.4-1.2-.7-1.9zm-15.3-11.2v3.9h-1.1c-.1-.5-.1-6.1 0-8.4h5.5v.9h-4.4v2.7h3.8v.9h-3.8zm-68-3.6l-.2.2v7.3h-1.1v-7.5h-2.7V26h6.7v.9h-2.7zm-9.6 22.3h-.4V25.8h.4v23.4zm22-8.6h1.1v8.5h-1.1v-8.5zm54.6 1.4h-.7v-1.3h1.2v1.8c-.1.3-.2.7-.4.9-.2.2-.5.4-.8.4v-.6c.6-.2.5-.8.7-1.2z"/><path class="st0" d="M34.3 35.4s0-.1 0 0c.1 0 0 0 0 0zm-15.5.4l.3.3c.1 1.3-.2 2.4-1.3 3.2-.5-.4-.6-.7-.4-1.3.1-.2-.1-.4.1-.5 0-.5.4-.9.6-1.3.1-.3.4-.4.7-.4z"/></g></svg>