<svg id="Warstwa_1" xmlns="http://www.w3.org/2000/svg" width="65.1" height="55.9"><style>.st0{fill:#fff}</style><g id="Layer_1"><path class="st0" d="M5.3 39.7l.9.6c1.6 1 3.3 1.5 5.1 1.8 1.3.2 2.7.4 4 .3 1.8-.1 3.7-.3 5.3-1.3 1.7-1.1 2.5-2.7 2.3-4.7-.2-1.5-1.1-2.4-2.4-3-1-.4-2-.6-3-.6-1.4-.1-2.7-.1-4.1-.2-.4 0-.9-.1-1.3-.3-.8-.3-1-.9-.7-1.7s1.1-1.3 2-1.3c1.5 0 2.9 0 4.3-.6 1.9-.8 3.1-2.2 3.5-4.2.3-1.6-.1-3.1-1.1-4.4 0-.1-.1-.1-.1-.2 0 0 0-.1-.1-.2 1.1.1 2.2.1 3.3.2v-2.1c-.4.1-.8.1-1.2.2-1.5.2-3.1.2-4.6-.3-1-.3-2.1-.5-3.1-.5-2 .1-3.9.6-5.3 2.1-.8.9-1.3 1.9-1.5 3.1-.2 1.6.1 3 1 4.3.6.9 1.4 1.5 2.4 1.9.1 0 .1.1.2.1-.6.5-1.2.9-1.7 1.4-1.1 1.1-1 2.6 0 3.7.7.8 1.7 1.2 2.8 1.3 1.3.1 2.7.2 4 .3.5 0 1.1 0 1.6.1.6.1 1.2.1 1.8.3.8.2 1.3.7 1.4 1.5.2.9-.1 1.6-.8 2.2s-1.6.8-2.5.9c-1.1.1-2.3.2-3.4.2-2.9-.1-5.5-.9-7.8-2.7-2.1-1.6-3.5-3.7-4.6-6.1-.7-1.5-1.2-3.1-1.5-4.7-.2-1-.2-2.1-.3-3.1-.1-.6-.1-1.2-.1-1.7.1-3.7 1.2-6.9 3.4-9.9C6 9 9.4 6.6 13.3 4.8c2.8-1.3 5.8-2.2 8.9-2.9 1.7-.4 3.4-.7 5.1-1 1.2-.2 2.4-.3 3.6-.4C32.3.4 33.6.3 35 .2c3.2-.3 6.3-.1 9.5-.1 1.2 0 2.4.2 3.6.3 2.4.2 4.7.7 6.9 1.5 1.9.7 3.7 1.6 5.3 2.9 2.3 1.9 3.7 4.2 4.4 7.1.3 1.5.5 3 .4 4.6-.1 2.2-.5 4.3-1.2 6.4-1.6 5.2-4.2 9.9-7.4 14.3-1.3 1.8-2.6 3.5-4.1 5.2-1.7 2-3.6 3.9-5.5 5.7-1.9 1.7-3.8 3.3-6 4.6-2.1 1.3-4.3 2.2-6.6 2.7-1 .2-2.1.3-3.2.4-.7.1-1.3.1-2 .1-1.8-.1-3.7-.4-5.4-.9-3.5-1-6.6-2.7-9.4-5-2-1.6-3.7-3.3-5.3-5.3-1.3-1.5-2.4-3.1-3.4-4.8-.3 0-.3-.1-.3-.2 0 .1 0 .1 0 0zm37.1-14.9v-15c-1.3.3-2.5.6-3.7 1 .6 1 .6 2.1.6 3.2v15c0 2 .2 4-.5 6h4c-.5-1.4-.4-2.9-.4-4.3v-4.5l.3.3c.9 1 1.7 2.1 2.6 3.1.9 1.1 1.9 2.3 2.9 3.4.8.9 1.7 1.7 2.8 2.1 1.1.4 2.1.4 3.2.2.5-.1 1-.3 1.4-.5v-.1c-1.3-.1-2.4-.7-3.3-1.6-1.2-1.1-2.3-2.3-3.4-3.5-1.2-1.3-2.3-2.6-3.4-3.9-.2-.2-.2-.3 0-.5 1.4-1.3 2.7-2.6 4.1-3.8.6-.6 1.3-1.2 2-1.7.6-.5 1.3-1 1.9-1.5h-3.8c-.1 0-.2.1-.3.2-.7.7-1.4 1.5-2.1 2.2-1.4 1.3-2.8 2.7-4.2 4-.3-.2-.5 0-.7.2zm-6.9-4v-2.2c0-.1-.1-.2-.2-.3-1.3-.7-2.7-1-4.1-1.1-1.2 0-2.3.2-3.4.6-2 .8-3.3 2.4-3.1 4.8.1 1.3.8 2.2 1.7 3 1.1.9 2.3 1.4 3.5 2 1.1.5 2.2 1 3 1.9.9.9 1 2.5-.2 3.3-.7.5-1.4.6-2.2.6-1.3.1-2.5-.2-3.7-.6l-2.4-.9v2.2c0 .1.1.2.2.3 1.3.6 2.7.9 4.1 1 1 .1 2.1 0 3.2-.2 1.4-.2 2.6-.7 3.7-1.8 1.4-1.5 1.7-4.1 0-5.8-.8-.8-1.7-1.3-2.7-1.9-1.4-.8-2.9-1.4-4.2-2.4-.7-.6-1.2-1.3-1.1-2.3.1-.7.7-1.4 1.6-1.7 1.6-.5 3.1-.3 4.6.3.5.5 1.1.9 1.7 1.2z"/><path class="st0" d="M10.2 23c0-1 .2-1.9.9-2.7.5-.6 1.1-1 1.8-1.1 1.3-.3 2.5-.2 3.6.6.8.6 1.3 1.4 1.5 2.3.3 1.3.3 2.5-.3 3.7-.6 1.1-1.5 1.6-2.6 1.7-1.1.1-2.1 0-3-.6-1-.7-1.5-1.6-1.7-2.8-.1-.3-.2-.7-.2-1.1z"/></g></svg>