<svg xmlns="http://www.w3.org/2000/svg" width="63.5" height="60.8"><path d="M63.5 56.1v4.7H23.7c-.2-.4-.6-1.3-.6-1.3s1.5-1.3 2.1-1.8c6.5-5.7 13-11.7 18.6-18.4 4.8-5.9 12.1-14.8 8.6-22.9-1.8-4.2-6.5-6.7-11.1-7-3.2-.2-6.4.2-9.4 1.2-1.5.5-5 2.5-5.7 1.7-.5-.6-.7-2.1-.9-2.8-.3-1 0-1.6 1-2C32.8 4.6 41 3.7 47.9 5.8c3.7 1.2 7.2 3.5 9.3 6.8 2.6 4.3 2.6 9.7 1 14.5s-4.6 8.9-7.8 12.7c-2.5 3-5.2 5.9-7.9 8.7-2.5 2.5-5.4 4.7-7.9 7.3-.1.1-.1.1-.1.2s.1.1.2.1h28.4c.1 0 .2-.1.4 0z" fill="#bbb"/><path d="M0 37.3V.4C0 0 0 0 .4 0h3.4c.1.1.1.3.1.4v15.3c0 .1 0 .2.1.3.1 0 .2 0 .3-.1 1.7-1.2 3.1-2.1 5.2-2.5 2.1-.4 4.2-.4 6.3 0 1.6.3 3.3 1 4.6 2 1.4 1.1 2.7 3 2.7 4.8v16.7c0 .1 0 .3-.1.4h-3.4s-.1 0-.1-.1V25.8c0-3.1.5-6.5-2.5-8.5-1.5-1-3.4-1.4-5.2-1.4-3.7 0-7.9 1.8-7.9 6v15c0 .1.1.3-.1.4H.4c-.3.1-.4.1-.4 0zm29.7-22l.5-.5c1.7-1.3 3.9-1.8 6-1.8.8 0 7 .6 6.7 1.8 0 .1-.5 1.9-.5 2.1 0 .2-.1.3-.3.1-1.6-.9-3.8-1.4-5.6-1.4-1.3 0-2.7.3-3.7 1.2s-1.5 2.3-1.1 3.6c1.1 2.8 5.7 3.3 8.1 4.4 2 .9 3.9 2.3 4.6 4.4.8 2.4-.2 5.2-2.3 6.7-1.3.9-2.8 1.4-4.4 1.7-3.2.5-6.6.1-9.5-1.4-.1-.1-.3-.2-.4-.3-.1-.1-.2-.2-.2-.4-.5-1.7-.6-2.1-.7-2.5-.2-.9.7-.2 1 0 .7.5 1.6.8 2.4 1.1 1.6.6 3.3.9 5 .9 1.3 0 2.7-.1 3.8-.8 1.1-.6 2-1.8 2-3.1 0-1.6-1.3-2.9-2.8-3.6-2.4-1.2-5.1-1.5-7.4-3-1.5-1-2.7-2.5-3.1-4.2-.3-1.7.6-3.7 1.9-5z" fill="#fff"/></svg>