<?xml version="1.0" encoding="utf-8"?>
<!-- Generator: Adobe Illustrator 21.0.0, SVG Export Plug-In . SVG Version: 6.00 Build 0)  -->
<svg version="1.1" id="Warstwa_1" xmlns="http://www.w3.org/2000/svg" xmlns:xlink="http://www.w3.org/1999/xlink" x="0px" y="0px"
	 width="168.6px" height="29.8px" viewBox="0 0 168.6 29.8" style="enable-background:new 0 0 168.6 29.8;" xml:space="preserve">
<style type="text/css">
	.st0{fill:#FFFFFF;}
	.st1{fill:#878787;}
</style>
<path class="st0" d="M21.8,16v10.3c0,1.3-1.1,2.4-2.6,2.4h-1.4v0.5h11.8v-0.5h-1.4c-1.4,0-2.6-1.2-2.6-2.4V3.4
	c0-1.2,1.1-2.4,2.6-2.4h1.4V0.5H17.9V1h1.4c1.5,0,2.6,1.2,2.6,2.4v11.2H7.8V3.4C7.8,2.2,8.9,1,10.4,1h1.4V0.5H0V1h1.4
	C2.9,1,4,2.2,4,3.4v22.9c0,1.3-1.1,2.4-2.6,2.4H0v0.5h11.8v-0.5h-1.4c-1.4,0-2.6-1.2-2.6-2.4V16H21.8z M49.9,21.7
	c0.1,1.7-0.9,4.3-2.4,5.6c-1.4,1.3-3.4,2.4-6,2.4c-3,0-5.6-1.6-6.6-2c-0.6-0.2-1.3-0.2-1.8,0.1c-0.5,0.3-0.8,0.8-1,1.8h-0.4v-10h0.4
	c0.4,3.1,1.8,4.9,2.7,5.9c1.5,1.7,4.2,2.6,6.8,2.2c2.1-0.3,4.4-2.6,4.2-5.4c-0.1-1-0.3-2.5-2.4-3.9c-1.3-0.9-3.2-2.1-5-3.3
	c-2.3-1.5-4.3-3.1-4.9-3.8c-0.8-0.9-1.7-2.1-1.7-4.1c0-1.7,0.6-3.6,2-4.9C35.2,1,37,0,39.7,0s4.7,1.4,5.4,1.7C45.8,2,46.5,2,47,1.7
	c0.4-0.2,0.7-0.6,0.8-1.6h0.4v9.4h-0.4c-0.4-3.1-1.7-5.4-2.7-6.2c-0.9-0.8-2.7-2-5.5-1.5c-2.6,0.5-3.9,1.7-4.1,3.8
	c-0.2,1.6,0.7,2.6,1.2,3.1c1,1.2,7.4,4.8,10.3,7.4C48.5,17.5,49.7,19,49.9,21.7 M59.2,27.6c2,0.6,5.8,1.1,8.4-0.8
	c3.2-2.3,3.8-7.8-0.6-10.7c-1.8-1.2-6.3-1.1-7.8-0.7L59.2,27.6L59.2,27.6z M59.2,13.7c1.4,0.4,5.6,0.5,7.2-0.6
	c2.5-1.6,3.4-4.2,2.9-6.5c-0.3-1.4-1-2.6-2.2-3.5c-2.5-1.7-6-1.5-7.9-0.9V13.7z M68.5,14.5c5.1,1.8,6.6,5.4,5.6,9.1
	C73,28,68,28.9,66.4,29.1c-0.7,0.1-2.6,0.1-4.4,0.1H51.3v-0.5H53c1.1,0,2.3-0.9,2.3-2.3v-23c0-1.4-1.2-2.3-2.3-2.3h-1.7V0.6h10.2
	c2.5,0,3.8,0.2,4.7,0.4c1.5,0.3,5.7,1.5,6.7,5.5C73.8,9.6,72.3,13.4,68.5,14.5 M101.2,1l0.4,9.8H101c-0.3-2.5-1.2-4.2-2.4-5.3
	c-0.3-0.3-1-1-1.9-1.6c-1.5-1-3.8-1.8-6.5-1.3C86.1,3.3,84,6,83,8.6c-1.3,3.2-2.1,8.6,0.1,13.2c1.8,3.7,5.2,5.3,7.8,5.7
	c2.2,0.3,7.2,0.2,11-4.9l0.6,0.4c-3,4.2-6.9,6.8-11.3,6.8c-5.7-0.1-9.3-3.2-11-5.1c-1.7-2-3.1-5.7-3.1-9c0-2.9,0.6-6.1,1.7-8
	c1.8-3.2,5.6-6.5,10.5-7c3.7-0.4,6.1,0.4,8.2,1.6c1,0.6,1.6,0.7,2.2,0.4c0.6-0.2,1-0.7,1-1.7C100.7,1,101.2,1,101.2,1z M125.4,0.5
	h28.8v28.8h-28.8V0.5z"/>
<path class="st1" d="M111.1,14.9l14.3,14.3V0.5L111.1,14.9z M125.4,29.2h28.8l-14.4-14.3L125.4,29.2z M139.8,14.9l14.4-14.4h-28.8
	L139.8,14.9z M154.2,0.5v28.7l14.4-14.3L154.2,0.5z"/>
</svg>
