<?xml version="1.0" encoding="utf-8"?>
<!-- Generator: Adobe Illustrator 21.0.0, SVG Export Plug-In . SVG Version: 6.00 Build 0)  -->
<svg version="1.1" id="Warstwa_1" xmlns="http://www.w3.org/2000/svg" xmlns:xlink="http://www.w3.org/1999/xlink" x="0px" y="0px"
	 width="171.2px" height="23.4px" viewBox="0 0 171.2 23.4" style="enable-background:new 0 0 171.2 23.4;" xml:space="preserve">
<style type="text/css">
	.st0{fill:#FFFFFF;}
</style>
<path class="st0" d="M0,22.2h3.8V0.1L0,2.8V22.2z M15.3,5.3c-2.4,0-5.3,0.5-7.6,1.4v15.5h3.7v-13c1-0.3,2.3-0.5,3.6-0.5
	c2.1,0,3.6,0.9,3.6,3.3v10.3h3.7V11.6C22.2,6.9,19.5,5.3,15.3,5.3 M33.4,5.3c-2.4,0-5.3,0.5-7.6,1.4v15.5h3.7v-13
	c1-0.3,2.3-0.5,3.6-0.5c2.1,0,3.5,0.9,3.5,3.3v10.3h3.7V11.6C40.3,6.9,37.6,5.3,33.4,5.3 M111.7,12.4c0.5-2.5,2.1-4,4.2-4
	c2.4,0,3.7,1.4,3.7,4H111.7z M116,5.3c-4.6,0-8,3.5-8,8.8c0,5.2,3.5,8.5,8.7,8.5c2.1,0,4.3-0.5,5.8-1.5V21l-1.7-2.3
	c-1.1,0.5-2.4,0.7-3.9,0.7c-2.6,0-5.1-1.6-5.3-4.6v-0.1h11.5v-1.9C123.1,8.4,120.8,5.3,116,5.3 M51.8,19.4c-2.8,0-4.8-2.1-4.8-5.5
	s2-5.5,4.8-5.5s4.8,2.1,4.8,5.5S54.6,19.4,51.8,19.4 M51.8,5.3c-4.9,0-8.5,3.5-8.5,8.7c0,5.1,3.6,8.6,8.5,8.6c5,0,8.6-3.5,8.6-8.6
	C60.3,8.8,56.7,5.3,51.8,5.3 M69.5,18.7l-4.7-13h-3.9l6.4,16.5h4.2L78,5.7h-3.8L69.5,18.7z M88.4,19.6c-0.7,0.1-1.5,0.2-2,0.2
	c-2.2,0-3.8-0.7-3.8-2.4s1.7-2.4,4.3-2.4h1.6v4.6L88.4,19.6z M85.9,5.3c-2.1,0-3.9,0.5-5.4,1.3v3.2c1.4-0.8,2.9-1.3,4.8-1.3
	c1.8,0,3.2,0.8,3.2,2.6v1.4h-1.8c-4.8,0-7.7,1.6-7.7,5c0,3.7,3.1,5,7.4,5c1.9,0,4.1-0.3,5.7-0.7V11C92.1,6.8,89.5,5.3,85.9,5.3
	 M100.9,16.9V9h4.7V5.9h-4.7V0l-3.7,2.7v3.2h-2.5V9h2.5v8.7c0,3.8,2.3,5.1,5,5.1c1.6,0,2.9-0.3,4-0.9v-3.3c-1,0.6-1.9,0.9-3,0.9
	C101.8,19.5,100.9,18.8,100.9,16.9 M146.1,19.7c-1.3,0.2-2.7,0.4-4.4,0.4c-3.3,0-5.5-1.1-5.5-5.4V0.1l-3.8,2.8v12.5
	c0,6.2,4.3,8,9.3,8c2.7,0,6.1-0.4,8.2-1V0.1h-3.8C146.1,0.1,146.1,19.7,146.1,19.7z M154.2,22.3h3.8V0.1h-3.8v10.3V22.3z M171.2,0.1
	h-4.1L159,11.2l8.1,11.1h4.1l-8-11.1L171.2,0.1z"/>
</svg>
