<svg id="Warstwa_1" xmlns="http://www.w3.org/2000/svg" width="146.2" height="40.8"><style>.st0{fill:#fff}.st1{fill:#878787}</style><g id="Layer_1"><path class="st0" d="M0 11.5h5.9v14.6l.1.1h8.4c.1.4.2 3.7.1 4.9H0V11.5z"/><path class="st1" d="M146.2 25.1H136c-.2.7.6 2.1 1.3 2.4 1.1.6 2.8.4 3.6-.7h5c-.2.7-.6 1.4-1.1 1.9-1 1.2-2.4 1.9-3.9 2.3-1 .2-2.1.3-3.1.2-1.4-.1-2.7-.5-3.8-1.2-1.5-1-2.5-2.3-2.9-4-.3-1-.3-2-.2-2.9.3-2.6 1.6-4.6 3.9-5.8.9-.5 1.9-.7 3-.8 1 0 2.1 0 3.1.2 1 .3 2 .7 2.8 1.3 1.2 1 1.9 2.3 2.2 3.8.1.5.2 1 .2 1.6 0 .1 0 .1.1.2v1.5zm-5.2-2.9c-.1-1.6-1.1-2.4-2.8-2.3-1.2.1-2.3 1.2-2.3 2.3.8.2 4.7.1 5.1 0z"/><path class="st0" d="M119.6 2.3c-.3.1-.5-.2-.8-.3-.7-.3-1.4-.5-2.1-.5-1.7 0-2.6 1.1-2.7 2.5-.1 1.2.2 2.4.6 3.5.8 1.9 2.1 3.4 3.6 4.9.3.3.7.6 1 .9.1.1.1.2.1.3-1.7-1-3.3-2.2-4.7-3.6-1.1-1.2-2-2.4-2.5-4-.3-1-.4-2-.1-3.1.4-1.3 1.2-2.3 2.6-2.7.1 0 .3 0 .3-.2h1.3c0 .1.1.1.2.1 1.3.3 2.4 1 3.2 2.2z"/><path class="st1" d="M120.4 13.3c.5-.5 1.1-1 1.6-1.5 1.1-1.2 2.1-2.4 2.8-3.9.6-1.3 1-2.6.8-4s-.8-2.1-2-2.4c-.7-.2-1.4-.1-2.1.2-.4.2-.8.3-1.1.5-.1.1-.3.2-.4.1.8-1.1 1.9-1.9 3.3-2.2.1 0 .1 0 .1-.1h1.1c0 .1 0 .1.1.1 1.7.3 2.6 1.4 3 3 .3 1.1.1 2.1-.3 3.2s-1 2.1-1.8 3c-1.3 1.6-3 2.8-4.7 4-.1 0-.2.1-.4 0zM62 40.4c-.1-.2-.3-.2-.4-.3-.8-.5-1.3-1.2-1.5-2.1-.2-.7-.1-1.3.1-2 .4-1.1 1.2-1.8 2.4-2 1.1-.2 2.1.1 2.9.9.4.4.6.8.5 1.4h-1.6c-.1-.5-.5-.8-1-.9-.9-.1-1.4.3-1.6 1.2-.1.5-.1 1 .1 1.5.3.8 1.1 1.2 1.9.9.3-.1.5-.4.6-.7 0-.1 0-.3.2-.4h1.5c.1.6-.2 1.1-.5 1.6-.2.3-.5.6-.9.7-.1 0-.2 0-.3.2H62zm31.5 0c-.5-1.5-1-3-1.4-4.6.5-.1 1 0 1.5 0 .3 1 .5 1.9.8 3 .2-1 .4-2 .7-2.9.4-.1.9 0 1.4-.1.3.9.4 1.8.8 2.7.2-.9.5-1.8.7-2.7.5-.1 1-.1 1.4 0 .1.2 0 .4-.1.5-.4 1.3-.8 2.5-1.2 3.8v.3h-.2c0-.1-.1-.1-.2-.1h-1.1c-.3-.9-.4-1.9-.8-2.9-.2.8-.4 1.4-.5 2.1-.1.3-.2.6-.1.9h-1.7zm17.8 0c-.5-.4-1-.8-1.1-1.5-.1-.6-.2-1.3.1-1.9.3-.8.8-1.2 1.7-1.3.4 0 .8.1 1.1.3.1.1.1.2.3.2v-2.1c.5-.1 1 0 1.4-.1 0 .1.1.1.1.2v6.2h-3.6zm1.2-3.6c-.3 0-.6.2-.7.5-.2.4-.2.9-.1 1.3.1.5.5.7.9.7s.6-.3.8-.8c.1-.4.1-.7 0-1-.1-.5-.4-.7-.9-.7zM81 40.4V34h1.4v2.3c.4-.4.7-.6 1.2-.7.6-.1 1.4.1 1.7.7.2.3.3.7.2 1v3H84v-2.4c0-.2 0-.4-.1-.6-.1-.4-.3-.6-.7-.6-.3 0-.6.1-.7.4-.1.2-.1.4-.1.6v2.5c-.4.2-.9.2-1.4.2z"/><path class="st1" d="M66.9 40.4c0-.1-.1-.1-.1-.2-.9-.7-.7-1.9.3-2.4.3-.1.6-.2.9-.2.3 0 .6-.1.9-.1.2 0 .4-.1.4-.4 0-.2-.1-.3-.3-.4-.4-.2-.8-.1-1.1.3 0 .1-.1.1-.1.2h-1.3c0-.6.3-1 .7-1.2.6-.3 1.2-.4 1.9-.3.2 0 .4 0 .6.1.7.2 1.1.7 1.1 1.5v2.2c0 .3 0 .7.1 1-1.3-.1-2.6-.1-4-.1zm2.4-2.1c-.3.1-.6.1-.9.2-.1 0-.2.1-.3.1-.2.1-.3.3-.3.5s.2.4.4.5c.5.2 1-.1 1.1-.5 0-.3.1-.6 0-.8zm64 2.1c0-.1-.2-.1-.3-.2-.8-.4-1.1-1-1.2-1.8-.2-1.4.7-2.7 2.4-2.8 1.4 0 2.2.8 2.4 2.2v.5c-.6.1-1.1 0-1.6 0h-1.6c0 .6.1.8.5 1 .5.2.9 0 1.3-.4h1.4c-.2.6-.5 1-1.1 1.2-.1 0-.1 0-.2.1-.7.2-1.3.2-2 .2zm1.9-2.8c-.1-.6-.5-1-.9-1-.5 0-.8.3-1 1h1.9zm-47.8 2.8c-.1-.2-.3-.2-.5-.3-.5-.4-.8-.9-.9-1.6-.1-.9.1-1.6.8-2.1.9-.8 2.3-.9 3.3-.1.5.4.7.9.8 1.5v.7c-.3.1-.7 0-1 .1h-2.2c0 .5.1.7.5.9.5.2.9.1 1.4-.4h1.2c-.1.6-.4.9-.8 1.1-.1.1-.3.1-.4.2h-2.2zm1.9-2.8c-.1-.6-.5-1.1-1-1-.3.1-.5.2-.6.4-.1.2-.3.3-.1.6h1.7zm32.3 2.8c-.3-.2-.7-.4-.9-.7-1.1-1.2-.6-3.5 1.3-4 .7-.2 1.3 0 1.9.3 1.5.9 1.6 3.3-.1 4.2-.1 0-.2 0-.3.2h-1.9zm1.9-2.3c0-.4 0-.8-.3-1.1-.4-.3-1-.3-1.2.1-.3.6-.3 1.1-.1 1.7.1.3.4.5.7.5.4 0 .6-.2.8-.5.1-.1.1-.4.1-.7zm-22.7 2.3c-.3-.2-.6-.4-.8-.6-1.1-1.2-.7-3.4 1-4 1.3-.4 2.5.1 3 1.2.6 1.4.1 2.7-1 3.3-.1 0-.2 0-.2.2-.7-.1-1.3-.1-2-.1zm.1-2.3c0 .2 0 .4.1.7.2.4.4.6.8.6s.7-.2.9-.6.2-.9 0-1.3c-.1-.3-.3-.6-.7-.6s-.6.1-.9.5c-.2.2-.1.4-.2.7zm36.9 2.3c0-.2-.2-.2-.3-.2-.5-.3-.7-.7-.7-1.3.5-.2.9-.1 1.4-.1.3.6.5.7 1.1.7h.2c.2-.1.3-.2.3-.4s-.1-.3-.3-.4c-.2-.1-.4-.1-.5-.2-.4-.1-.8-.1-1.2-.3-.7-.3-.9-.6-.9-1.4 0-.4.2-.6.5-.8.6-.4 1.3-.5 2-.4.2 0 .3 0 .5.1.7.2 1.1.6 1.2 1.3-.4.2-.9 0-1.3.1-.5-.7-1-.8-1.5-.3.1.2.2.3.4.4.4.2.9.2 1.3.3.6.2 1.1.6 1.1 1 .1.6-.2 1.2-.8 1.5-.1.1-.2 0-.2.2-.7.2-1.5.2-2.3.2zm4.6 0c0-.2-.2-.2-.3-.2-.5-.3-.7-.7-.7-1.2.5-.2.9-.1 1.4-.1.4.6.5.7 1.1.7.2 0 .4-.1.5-.4.1-.2-.1-.4-.3-.4-.3-.1-.6-.2-.9-.2-.3-.1-.6-.2-1-.3-.8-.4-.8-1.6-.1-2 .6-.4 1.3-.5 2-.4.1 0 .2.1.3.1.8.1 1.3.5 1.5 1.4-.4.2-.9.1-1.3.1-.5-.7-1-.7-1.4-.2.1.2.2.3.4.4.4.2.9.2 1.4.3.5.1.9.4 1 1s-.1 1.1-.6 1.5c-.1.1-.3.1-.4.3-1-.4-1.8-.4-2.6-.4zm-24.8 0v-3.6c-.2-.2-.5 0-.8-.1v-.8c.2-.2.5 0 .7-.2.1-.2 0-.6.1-.8.2-.4.4-.7.8-.7.5-.1 1-.2 1.5 0v1h-.8c-.2.2-.3.4-.2.6.2.2.6 0 .8.1v.8c-.3.1-.6 0-.9.1v3.6h-1.2zm-38.9 0c-.5-.4-.7-.9-.7-1.5v-2.1c-.3-.1-.5 0-.8-.1v-.9h.7c.1-.2 0-.5.1-.7v-.7h1.5v1.3c.3.2.6 0 .9.2v.8c-.3.1-.6 0-.9.1v2c0 .4.1.5.5.5h.4v1.1h-1.7zm-5 0V34h1.6v6.3c-.6.1-1.1.1-1.6.1zm56.3 0V34h1.5c.2.2.1.4.1.6v5.8H130z"/><path class="st1" d="M125.3 40.4v-4.6c.5-.2 1 0 1.4-.1.1.2 0 .5.1.6.9-.7.9-.7 1.8-.6V37c-.2.1-.4 0-.6 0-.7 0-1.1.3-1.1 1.1v2.3h-1.6zm-53.8 0v-6.3c.5-.1.9 0 1.5 0v6.4c-.5-.1-1-.1-1.5-.1zm36.7 0v-6.3h1.4l.1.1v6.2h-1.5zm-3.7 0v-4.6h1.4c.1.2 0 .4.1.6.7-.7.8-.8 1.7-.7.1.4 0 .8 0 1.3-.2.1-.4 0-.6 0-.7 0-1.1.4-1.1 1.1v2.3h-1.5zm-8 0l1.1-.1c.1 0 .2 0 .2.1h-1.3zm-22.2-9.5H69c-.1-.2 0-.4 0-.5V23c0-.3 0-.7-.1-1-.3-1.1-1.3-1.3-2.1-1.2-.6.1-1 .5-1.2 1.1-.2.5-.2.9-.2 1.4v7.6h-5.3v-14h5.1c.1.6 0 1.2 0 1.8.2 0 .2-.2.3-.3 1-1.2 2.2-1.8 3.8-1.9.7 0 1.4 0 2.1.2.9.3 1.6.8 2.1 1.6.1.1.1.2.2.3 0 0 .1-.1.2-.1.8-1 1.9-1.6 3.1-1.8.8-.2 1.6-.2 2.3-.1 1.9.2 3.3 1.3 3.8 3.2.1.6.2 1.1.2 1.7v9.3c-.5.1-4 .1-5.3 0-.1-.1-.1-.3-.1-.5v-7.2c0-.4-.1-.8-.1-1.2-.2-1.1-1.1-1.3-2-1.2-.8.2-1.2.6-1.4 1.6-.1.7-.1 1.4-.1 2.1v6.5zm31.3-1.4v1.4h-5.1V11.6c.5-.1 4.9-.1 5.3 0 .1.6 0 1.1 0 1.7v5.1c.3-.3.6-.7.9-.9.8-.6 1.8-.9 2.8-1 1.1 0 2.2.1 3.2.7.8.4 1.4 1.1 1.9 1.8.7 1.2 1.1 2.6 1.1 4v1.5c-.1 1.6-.5 3.2-1.5 4.5-1.1 1.5-2.5 2.3-4.4 2.3-.7 0-1.4-.1-2.1-.3-.5-.2-1-.5-1.4-.9-.2-.2-.4-.4-.7-.6zm0-5.5c0 .3.1.8.1 1.2 0 .2.1.5.2.7.6 1.7 2.8 1.8 3.6.7.3-.4.5-.8.6-1.2.2-.7.2-1.5.1-2.2 0-.4-.1-.9-.2-1.3s-.3-.8-.7-1.1c-.9-.7-2.6-.7-3.3.7-.3.8-.3 1.6-.4 2.5z"/><path class="st0" d="M23.9 16.9h5.5c-.7 2-1.4 3.9-2.1 5.9s-1.4 3.9-2.1 5.9c-.5 1.2-.8 2.5-1.4 3.7-.5 1-1.1 1.9-2.1 2.4-.6.3-1.3.5-1.9.6-1 .1-2 .1-3 .1H15v-4.3c.1-.1.3-.1.4-.1h1.9c.7 0 1-.3 1-1 0-.3 0-.5-.1-.8-.5-1.7-1.2-3.3-1.8-5-.8-2.3-1.7-4.5-2.5-6.8-.1-.2-.2-.4-.1-.7h5.6c.8 2.7 1.5 5.3 2.3 8.1.7-2.7 1.5-5.4 2.2-8zm34.9 14h-5.4c-.1-.4-.2-.8-.2-1.2-.2 0-.3.2-.4.3-.7.7-1.6 1-2.6 1.2-.7.1-1.4.1-2.1.1-1 0-1.9-.3-2.7-.8-.9-.5-1.4-1.4-1.6-2.4-.2-.7-.2-1.5 0-2.2.3-1.1 1-1.9 1.9-2.4.8-.4 1.7-.7 2.6-.8 1-.2 2.1-.3 3.1-.5.3-.1.7-.1 1-.3.8-.4.8-1.4.1-1.9-.1-.1-.3-.2-.5-.2-.6-.2-1.2-.2-1.7 0-.6.2-1 .6-1.1 1.3h-4.9c-.1-.4.1-.8.1-1.1.3-1.2 1-2 2-2.5.8-.4 1.6-.6 2.5-.8 1.3-.2 2.7-.2 4-.1 1.1.1 2.2.3 3.2.8 1.1.6 1.7 1.5 1.9 2.7.1.6.1 1.2.1 1.8v5.9c.1 1.4.2 1.7.7 3.1zm-5.7-6.3c-.4.2-.8.3-1.2.4-.4.1-.9.2-1.3.3-.3.1-.5.2-.7.3-.8.5-.9 1.5-.1 2.1.5.4 1.1.4 1.7.3.8-.2 1.4-.7 1.6-1.5.1-.6 0-1.2 0-1.9z"/><path class="st1" d="M91.8 16.5c1.5 0 2.9.2 4.2.9 1.6.8 2.6 2.1 3.1 3.9.2.8.4 1.5.4 2.3 0 2.4-.7 4.6-2.6 6.1-.8.7-1.8 1.1-2.8 1.3-.9.2-1.9.3-2.9.2-1.9-.1-3.6-.7-5-2-.7-.7-1.2-1.6-1.6-2.5-.3-1-.5-2.1-.5-3.2.1-1.9.7-3.7 2.1-5 .9-.9 2-1.4 3.2-1.7.9-.2 1.7-.3 2.4-.3zM89.5 24c-.1.3.1.8.1 1.2.1.5.3 1 .6 1.4.8 1 2.9 1.1 3.6-.6.3-.8.4-1.7.3-2.6 0-.2-.1-.4-.1-.6 0-.5-.1-.9-.3-1.3-.4-.8-1.1-1.3-2.2-1.1-.9.1-1.4.6-1.7 1.4-.2.7-.2 1.4-.3 2.2z"/><path class="st0" d="M43.1 22.2h-5c0-.1-.1-.1-.1-.2-.1-.9-.6-1.4-1.4-1.5-.7-.1-1.3-.1-1.9.4-.5.4-.7.9-.8 1.5-.2.7-.2 1.5-.1 2.3 0 .6.2 1.1.4 1.7.5 1.1 2.6 1.6 3.6.2.2-.3.3-.8.5-1.2h5.1c-.3 1.6-.9 3-2.1 4.1-.9.8-1.9 1.3-3 1.5-1 .2-2 .3-2.9.2-1.8-.2-3.4-.8-4.7-2.1-1.1-1.1-1.8-2.4-2-3.9-.2-1.4-.1-2.7.4-4 .6-1.6 1.6-2.8 3.1-3.7 1.2-.7 2.6-1 4-1s2.7.2 3.9.8c1.8.9 2.8 2.3 3.2 4.2v.2c-.2.2-.2.3-.2.5z"/><path class="st1" d="M124.5 11.6h5.3l.1.1V31h-5.3c-.1-.5-.1-18.7-.1-19.4zm-2.1 5.3v14h-5.3v-14c.4-.1 3.7-.1 5.3 0zm-2-3.5c-.1.1-.1.1-.2.1 0-.2.1-.2.2-.1 0-.1 0-.1 0 0zm-.5-11c0-.1 0-.1.1-.1 0 0 0 .1-.1.1z"/><path class="st0" d="M119.6 2.2c.1 0 .1.1.1.1-.1.1-.2.1-.1-.1z"/></g></svg>