<svg id="Warstwa_1" xmlns="http://www.w3.org/2000/svg" width="281.6" height="31"><style>.st0{fill:#fff}</style><g id="Layer_1"><path class="st0" d="M18.7 22.9v-.7c1.7-.2 2.3-.9 2.2-3.2l-.6-14.6-7 18.3h-1L5.1 4.4l-.6 13.7c-.1 2.9.5 3.7 2.7 4.1v.7H0v-.7c2-.2 2.8-1.3 3-4.3l.7-13.7C3.8 1.6 2.1 1.3.9 1.1V.4h5.9l6.7 17.3L20.1.5h5.6v.7c-1.8.2-2.6 1-2.5 3l.7 14c.1 2.7.9 3.6 2.9 3.8v.7h-8.1m15.6.6c-4.8 0-6.6-3.4-6.6-6.6 0-4.1 3.1-7.9 7.3-7.9 1.7 0 3.2.4 4.2 1.2 0 .8-.5 1.9-.9 2.5H38c-1.1-1.5-2.7-2-4.1-2-.9 0-1.9.2-2.5.9-.7.6-1.1 1.8-1.1 3.4 0 3.4 1.4 6.7 5.3 6.7 1.4 0 2.8-.4 4.1-1.2l.3.7c-1.3 1.5-3.7 2.3-5.7 2.3m21.8-.4c-3.1-3.5-5.9-7.1-8.6-10.3l-1.1 1.2V15c0 6.7 0 6.9 2.5 7.3v.7h-8v-.7c2.3-.2 2.5-.6 2.5-6.8V7.8c0-5.8-.1-6.3-2.5-6.5V.6h8v.7c-2.3.3-2.5.7-2.5 6.4v4.1l5.9-6.5c1.4-1.6 1.6-2.4 1.6-2.8 0-.7-.4-1.1-1.4-1.2V.6H60v.7c-2.2.1-3.4 1.4-5.8 3.9l-4.8 5.3c1.5 1.9 4 4.9 5.5 6.7 3.9 4.6 5.2 4.9 6.4 5v.7h-5.2M65 5c-1 0-1.8-.8-1.8-1.8s.7-1.8 1.8-1.8c1 0 1.8.8 1.8 1.8S66 5 65 5m-3.7 17.9v-.7c2.5-.1 2.5-.1 2.5-5.1v-3.4c0-3.9-.3-4-2.5-4.1v-.7h5.2v8.2c0 4.9.1 4.9 2.3 5v.7l-7.5.1zm18.5 0v-.7c2-.1 2.1-.2 2.1-4.8v-2.8c0-3.4-1.4-4.1-3.1-4.1-2.1 0-3.9 1.6-3.9 2.9v3.8c0 4.9.1 4.9 2.3 5v.7h-7.4v-.7c2.5-.1 2.5-.1 2.5-5.1v-3.4c0-3.9-.3-4-2.5-4.1v-.7H75v2.5c1.4-1.8 3.3-2.7 5.1-2.7 2.2 0 4.5 1.3 4.5 5.5v3.1c0 4.6 0 4.7 2.5 4.8v.7l-7.3.1m13.5.3c-1.8 0-4.1-.5-4.6-1.4-.2-.3-.4-2.2-.4-3.2h.8c.5 2.5 2.2 3.6 4.2 3.6s3.2-.8 3.2-2.1c0-3.8-8-2.9-8-7.6 0-2.1 1.7-3.9 4.6-3.9 1.9 0 3.9.5 4.1.7s.4 1.4.4 3.5H97c-.2-.8-1.4-3.2-4-3.2-1.3 0-2.3.6-2.3 1.8 0 3.3 8 2.5 8 7.7-.1 2.2-2.1 4.1-5.4 4.1m17.5-9.4h-7.2c.2-2.6 1.4-4 3.6-4 2.3 0 3.6 1.5 3.6 4m2.6 7.2l-.3-.7c-1.3.8-2.7 1.2-4.1 1.2-3.9 0-5.5-3.5-5.3-6.6h9.8c.2-3.2-1.5-6.2-5.5-6.2-4.1 0-6.8 3.2-6.8 7.7 0 3.5 1.8 6.9 6.6 6.9 1.9 0 4.2-.8 5.6-2.3m13.2-8.6l-2.8 7.9c-1.8 5.2-2.8 8.6-8 10.7-.4-.4-1.1-1.5-1.3-2.2 3.9-.9 5.9-2.6 7.1-5.8l-3.6-8.1c-2.1-4.8-2.3-5-3.9-5.1v-.7h6.5v.7c-1 .1-1.3.4-1.3 1s.3 1.2 1 2.9l2.6 6.1 2.7-7.9c.5-1.4-.2-2-1.4-2.1v-.7h5v.7c-1.1 0-2 .8-2.6 2.6m18.6 7.7c-1.2.9-3.2 1.2-4.8 1.2-4.1 0-7.3-2.9-7.3-6.8 0-2.4 1.1-3.9 2.6-4.4 2 3.5 5.7 7.2 9.5 10m9 2.8v-.7c-1.6-.2-3.9-1.4-6.4-3.3.9-1.5 1.1-3.6 1.3-5.2.2-1.4 1.2-1.3 1.9-1.4v-.6h-6.3v.6c1.5.2 2.9.4 2.9 2.7 0 1.2-.2 2.4-.7 3.2-5.5-4.3-10.6-10.3-10.6-13.3 0-1.5.9-2.2 2.3-2.2 1.8 0 3.5 1.2 4.3 3.6h.6l-.1-4.2h-.6c0 .3-.3.5-.5.5-.8 0-1.9-.9-3.8-.9-2.1 0-4.3 1.3-4.3 4.2 0 1.1.4 2.1.9 3.3-2.9.9-4.4 3.4-4.4 6.2 0 5.2 3.9 8 8.4 8 2.8 0 5-.9 7-2.6 1.2.9 2.5 1.8 3.2 2.1h4.9zm11.1.5c-6.5 0-10.6-4.3-10.6-11.1 0-7.1 4.5-12.3 11.1-12.3 3.3 0 4.6.9 5.9.9.6 0 1-.2 1.2-.7h.6l.2 6.7h-.7c-1.1-3.9-3.3-5.8-7.2-5.8-5 0-8 3.5-8 9.8 0 6.5 3.1 10.9 8.3 10.9 2.9 0 5.8-1.3 7.1-3.1l.6.7c-1 2-4.3 4-8.5 4m22.4-6.6c0 3.2-1.4 5.2-4.4 5.2-2.5 0-4.9-2.3-4.9-7.1 0-3.4 1.6-5.2 4.3-5.2 2.5.1 5 2.5 5 7.1m2.8-.9c0-2.7-1.1-5-3.1-6.2-1.2-.7-2.6-1.1-4.3-1.1-4.4 0-7.5 3.2-7.5 7.3 0 2.7 1.1 5 3.1 6.2 1.2.7 2.7 1.1 4.3 1.1 4.4 0 7.5-3.1 7.5-7.3m20.6 7v-.7c2-.2 2.1-.4 2.1-4.6v-3.2c0-2.9-1.1-3.9-2.9-3.9-2.1 0-3.9 1.6-3.9 3v3.9c0 4.4 0 4.6 2.3 4.8v.7h-6.9v-.7c1.9-.1 2.1-.4 2.1-5v-2.8c0-2.8-.9-3.9-3-3.9-1.9 0-3.8 1.6-3.8 3v4.1c0 4.4.2 4.4 2.3 4.6v.7H192v-.7c2.3 0 2.4 0 2.4-4.5v-4c0-3.9-.3-4-2.5-4.1v-.7h5.2v2.5c1.1-1.5 3-2.7 4.9-2.7 2.3 0 3.7 1.1 4.3 3 1.3-1.8 3.1-3 5.3-3 2.5 0 4.6 1.4 4.6 5.3v3.6c0 4.1-.1 4.4 2.4 4.5v.7h-7.5m20.9-6.6c0 3.6-1.5 6-4.4 6-1.8 0-3.9-1-3.9-2.4v-6.9c0-1.2 1.7-2.3 3.6-2.3 2.9-.1 4.7 2.1 4.7 5.6m2.8-.3c0-4.1-2.6-7.1-6.2-7.1-2 0-3.7.9-4.8 2.3V9h-5.1v.7c2.1.1 2.4.2 2.4 4.8V24c0 5 .1 5.3-2.3 5.5v.7h7.4v-.7c-2.7-.1-2.5-.5-2.5-5.7v-2c1.1 1.1 2.7 1.5 4.2 1.5 4.3-.1 6.9-3.2 6.9-7.4m9.8 3.7c0 1.2-1.6 2.1-2.8 2.1-1.2 0-2.1-.7-2.1-2.3 0-2.8 3-2.5 5-3.6v3.8m5.7 3.3v-.7h-.8c-1.9 0-2.2-.7-2.2-3.4v-4.7c0-.9-.1-1.7-.3-2.4-.7-2.2-2.5-3-4.9-3-1.5 0-3.7.5-5 1.6.1.7.7 1.9 1.1 2.3l.4-.1c.6-1.5 1.7-2.6 3.4-2.6 1.8 0 2.6 1.3 2.6 2.8v1.6c0 1.1-4.7 1.2-6.6 2.8-.7.6-1.1 1.3-1.1 2.3 0 2.2 1.5 3.6 3.8 3.6 1.4 0 2.7-.5 4-1.9.2 1 1.1 1.6 2.4 1.6h3.2v.2z"/><path class="st0" d="M260.1 22.9v-.7c2-.1 2.1-.2 2.1-4.8v-2.8c0-3.4-1.4-4.1-3.1-4.1-2.1 0-3.9 1.6-3.9 2.9v3.8c0 4.9.1 4.9 2.3 5v.7H250v-.7c2.5-.1 2.5-.1 2.5-5.1v-3.4c0-3.9-.3-4-2.5-4.1v-.7h5.2v2.5c1.4-1.8 3.3-2.7 5.1-2.7 2.2 0 4.5 1.3 4.5 5.5v3.1c0 4.6 0 4.7 2.5 4.8v.7l-7.2.1"/><path class="st0" d="M279 12.4l-2.8 7.9c-1.8 5.2-2.8 8.6-8 10.7-.4-.4-1.1-1.5-1.3-2.2 3.9-.9 5.9-2.6 7.1-5.8l-3.6-8.1c-2.1-4.8-2.3-5-3.9-5.1v-.7h6.5v.7c-1 .1-1.3.4-1.3 1s.3 1.2 1 2.9l2.6 6.1 2.7-7.9c.5-1.4-.2-2-1.4-2.1v-.7h5v.7c-1 0-2 .8-2.6 2.6"/></g></svg>