<svg id="Warstwa_1" xmlns="http://www.w3.org/2000/svg" width="144.8" height="32.7"><style>.st0{fill:#fff}</style><g id="Layer_1"><path class="st0" d="M41.4 24.9h-3l-.3-1.5c-.2-1.2-.5-2.4-1-3.6-.2-.5-.5-.9-.9-1.2-.5-.4-1-.5-1.6-.6h-1.7c-.1.5-.1.9-.1 1.4v5.5H30V8.4l.1-.1c1.8 0 3.6-.1 5.5 0 1 0 2 .3 2.9.7 1.2.7 2 1.6 2.2 3 .2 1.2 0 2.4-.7 3.4-.4.5-.8.9-1.4 1.2-.2.1-.3.2-.5.3.1.1.1.1.1.2.9.5 1.4 1.3 1.8 2.3.5 1.2.8 2.5 1 3.8.2.5.3 1 .4 1.7zm-8.6-9.1c.1 0 .1.1.2.1h1.8c.5 0 .9-.1 1.4-.3 1.1-.4 1.7-1.3 1.7-2.5 0-1.1-.6-2-1.8-2.3-1-.3-2-.2-3.1-.2-.1 0-.1.1-.2.1v5.1zm59.1 1.1c1.2.7 1.8 1.7 2.2 2.9.5 1.4.7 2.8 1 4.2.1.3.1.5.1.8-.4.1-2.1.1-3 0-.1-.4-.2-.8-.2-1.2-.2-1.2-.5-2.4-.9-3.5l-.3-.6c-.5-.8-1.1-1.4-2.1-1.5-.7-.1-1.3-.1-2.1 0v6.8h-2.8V8.3h4.8c.9 0 1.8.1 2.6.4 1.3.4 2.5 1.1 3 2.5.6 1.6.5 3.1-.6 4.6-.3.4-.7.7-1.1.9-.2 0-.4.1-.6.2zm-5.2-1.1c.8 0 1.6.1 2.4 0 .5 0 .9-.2 1.3-.4 1-.5 1.4-1.4 1.3-2.5-.1-1.1-.7-1.8-1.8-2.1-1-.3-2.1-.3-3.2-.1l-.1.1c.1 1.6.1 3.3.1 5zm-66.7.7v13.4c0 .9-.3 1.6-.9 2.1-.5.5-1.1.7-1.8.7H2.8C1.7 32.7.1 31.8 0 30V3c0-.7.2-1.2.6-1.8C1.1.6 1.7.2 2.5.1 3.1.1 3.7 0 4.3 0h12.5c.8 0 1.5.1 2.2.6s1 1.2 1.1 2.1v.6c-.1 4.5-.1 8.8-.1 13.2zm-.9 0V3.1c0-1-.7-2-1.7-2-.3 0-.5-.1-.8-.1H3.1c-.5 0-.9.1-1.3.4-.6.4-.8 1-.8 1.7v27c.1.8.4 1.4 1.2 1.7.3.1.6.2.9.2h14.4c.8-.1 1.4-.5 1.6-1.2.1-.3.1-.6.1-.9-.1-4.6-.1-9-.1-13.4zm29.2-3.8c1.1 0 2.1.2 3 .7 1.4.8 2.3 2 2.7 3.5.4 1.4.4 2.9-.1 4.3-.7 2.1-2.1 3.4-4.3 3.8-1.3.2-2.6.2-3.9-.4-1.7-.7-2.8-2.1-3.2-3.9-.3-1.4-.3-2.9.2-4.3.7-1.9 2-3.1 3.9-3.6.6 0 1.1-.1 1.7-.1zm3.2 6.2c0-.8-.1-1.7-.6-2.5-1.1-1.9-3.6-2.1-5-.4-.4.6-.7 1.2-.8 2-.2 1.3 0 2.5.8 3.6 1.1 1.6 3.6 1.6 4.7 0 .6-.8.9-1.7.9-2.7zm56.7 11.3v-2.3c1.5.1 2.6-.4 3.4-1.6.3-.4.5-.9.8-1.4.1-.2.1-.5 0-.7-.8-1.9-1.5-3.8-2.3-5.7-.7-1.8-1.4-3.6-2.2-5.4.4-.1 2.5-.1 3.1 0 1 2.6 1.9 5.3 2.9 7.9h.1c.9-2.6 1.8-5.3 2.7-7.9h2.8c-.4 1-.7 1.9-1.1 2.9-1 2.6-2 5.3-3 7.9-.6 1.4-1.2 2.8-2.2 4-.9 1.1-1.9 2-3.4 2.3h-1.6zm-.2-11.3c-.1 1.4-.3 2.6-1.1 3.8-1 1.5-2.5 2.3-4.3 2.4-.9.1-1.8 0-2.6-.2-1.8-.6-3.1-1.8-3.6-3.7-.5-1.8-.5-3.5.2-5.2s2-2.7 3.8-3.1c1.3-.3 2.6-.3 3.9.2 1.8.7 2.9 2 3.4 3.9.2.6.2 1.3.3 1.9zm-9.2 0c0 .2.1.5.1.8.1.8.4 1.5.9 2.1.6.8 1.4 1.2 2.4 1.1 1.1-.1 2-.7 2.5-1.7.4-.9.6-1.9.5-2.9-.1-.8-.3-1.6-.9-2.3-.6-.8-1.5-1.2-2.5-1.1-.9.1-1.7.5-2.2 1.3-.6.8-.8 1.7-.8 2.7zm33.7.7c0 2 1.1 3 2.4 3.3 1.4.3 2.8.1 4.1-.4.1 0 .1-.1.3-.1.1.6.3 1.3.4 1.9-.5.3-1 .4-1.5.5-1.4.4-2.9.5-4.4.1-2.3-.6-3.5-2.1-4-4.3-.3-1.6-.2-3.2.6-4.7.8-1.7 2.2-2.7 4.1-3 .8-.1 1.5-.1 2.2.1 1.3.3 2.3 1.1 2.9 2.3.7 1.4.8 2.8.7 4.4h-3.9c-1.3-.1-2.6-.1-3.9-.1zm5.2-2.1c.1-.5 0-.9-.2-1.3-.2-.7-.7-1.2-1.4-1.3-.4-.1-.9-.1-1.3-.1-.9 0-1.5.4-2 1.2-.3.5-.4 1-.4 1.5.5.1 4.6.1 5.3 0zm-63.2-4c-.2.7-.4 1.2-.5 1.9-.1 0-.2-.1-.4-.1-.9-.3-1.7-.5-2.7-.3-.5.1-.9.4-1 .9s.1.9.5 1.2.8.5 1.2.7c.5.2 1.1.4 1.6.7.7.4 1.3.9 1.6 1.6.6 1.4.3 3.3-1.2 4.3-.8.5-1.6.7-2.5.8-1.1.1-2.3 0-3.4-.4-.3-.1-.5-.3-.8-.4.2-.7.4-1.3.5-2 .2.1.3.1.4.2.7.3 1.5.5 2.3.6.4 0 .9-.1 1.3-.2.9-.3 1.2-1.5.4-2.2-.3-.3-.7-.4-1-.6-.7-.3-1.5-.5-2.1-1-.8-.6-1.4-1.2-1.6-2.2-.2-1.3.3-2.3 1.2-3.1.8-.6 1.7-.9 2.7-.9.8 0 1.7.1 2.5.4.4-.2.7-.1 1 .1zm54.5-.1v.2c-.1.6-.3 1.1-.4 1.7-.2-.1-.3-.1-.5-.1-.9-.2-1.8-.3-2.7-.1-1.4.3-2.3 1.2-2.6 2.6-.2 1-.2 1.9.1 2.9.5 1.5 1.6 2.3 3.2 2.4.7 0 1.4-.1 2-.3.2-.1.4-.1.6-.2.1.7.3 1.3.4 2-.6.3-1.2.4-1.8.6-1 .2-2.1.2-3.1-.1-2.4-.6-3.8-2.1-4.3-4.5-.3-1.7-.2-3.3.7-4.8.8-1.4 2.1-2.3 3.7-2.7.7-.2 1.3-.2 2-.2.8 0 1.6.2 2.4.4 0 0 .1.1.3.2zM64.8 24.9H62V7.7h2.7c.2.4.2 16.4.1 17.2zM59 7.7v17.2h-2.7c-.1-.5-.1-16.1-.1-17.2.5-.1 2.4-.1 2.8 0zm22.6 8.2v2c-.4.1-4.9.1-5.6 0v-2.1c1.9.1 3.8.1 5.6.1zm59.5-3.3c-.1-1.1 1-1.8 1.8-1.8 1 0 1.9.8 1.9 1.8 0 1.2-1.1 1.8-1.8 1.8-.9.1-1.9-.6-1.9-1.8zm3.4 0c0-.9-.7-1.6-1.5-1.6-1 0-1.5.6-1.6 1.6 0 .8.7 1.5 1.5 1.6.9 0 1.6-.7 1.6-1.6z"/><path class="st0" d="M1.7 7h16.5c.1.5 0 .9 0 1.4v17.4c-.5.1-13.8.2-16.4.1v-.4c-.1-6.1-.1-12.3-.1-18.5zM3 8.3c0 .1.1.1.1.2.5.4.7 1 .7 1.6v11.1c0 .7-.2 1.3-.7 1.7v.1c.6.1 3 .1 3.5 0-.7-.5-.9-1.1-.9-1.9V17c1.2-.2 2.3-.3 3.5-.4 1 1.4 1.6 3 1.8 4.8.1.6-.1 1.1-.5 1.7.7.1 2.8.1 3.1 0l-.6-1.2c-.1-.3-.2-.6-.2-.9-.4-1.7-1-3.3-2.1-4.6 0 0 0-.1-.1-.2.1-.1.2-.1.3-.2.6-.4 1.1-.8 1.5-1.4 1.1-1.5 1-3.6-.3-4.9-.8-.8-1.8-1.2-2.8-1.2-2-.1-4 0-6 0-.2-.3-.2-.3-.3-.2zm10.2 2c.1.4.2.9.3 1.3 0 .1.1.3.2.4 1.1 1 1 3.1 0 4.1-.4.4-.9.8-1.5 1-.1.1-.3.1-.5.2.3.4.2 1 .9 1 .1 0 .1.1.2.2.9 1.2 1.4 2.5 1.7 4 .2.8.1 1.6-.4 2.3v.1c.9.1 2.7.1 3.1 0-.2-.4-.4-.7-.6-1.1-.1-.3-.2-.7-.3-1.1-.5-1.7-1.1-3.3-2.2-4.7-.1-.1-.1-.2-.2-.3 1.8-1.1 2.7-2.6 2.2-4.7-.2-1.3-1.3-2.5-2.9-2.7zM7 17.2v6c0 .6-.2 1.1-.7 1.5l-.2.2c.8.1 3.2.1 3.6 0-.7-.7-.8-1-.8-2.1v-3.9c.2 0 .4-.1.5-.1h.6c-.3-1-.3-1.1-1.1-1-.1-.3.1-.6-.1-.8-.6 0-1.2 0-1.8.2zm11.2 9.7v3.2c0 .5-.4.9-.9 1H2.8c-.6 0-1-.4-1-1v-3.2h16.4zM3.7 29.3c.7-.1.7-.1.9.4.2.5.6.6 1.1.6-.3-.4-.5-.8-.7-1.3l.1-.1c.3-.2.4-.5.4-.8-.1-.4-.3-.5-.7-.6-.2 0-.4 0-.6-.1H3.1c.1 1 .1 1.9 0 2.8h.8c-.2-.2-.2-.5-.2-.9zm3.7 1.1c.8 0 1.4-.6 1.4-1.5 0-.8-.7-1.4-1.5-1.4s-1.4.7-1.4 1.5c0 .7.6 1.5 1.5 1.4zm7.3-2.8c.3.9.2 1.9 0 2.8h2.1c0-.2.1-.4.1-.6h-1.4v-.6h1v-.4c-.3 0-.7 0-1-.1v-.5h1.4v-.6h-2.2zm-.6.1c-.9-.4-1.7 0-2.1.4-.3.5-.3 1.3 0 1.8.4.5 1.2.7 2 .3 0-.2.1-.4.1-.6-.3.1-.5.1-.7.2-.7.1-1.1-.2-1.1-1 0-.6.5-1 1.1-.8.2 0 .3.1.5.1s.2-.2.2-.4zm-3.7 1.1c-.3-.4-.5-.8-.8-1.2-.2 0-.5-.1-.8.1l.9 1.2c.2.3.3.6.3 1 0 .1 0 .3-.1.4h.9c-.2-.7-.1-1.2.4-1.7.3-.3.5-.6.7-1h-.8c-.3.4-.5.7-.7 1.2zm7.8-22.7H1.7V3.5C1.7 2.3 2 2 3.2 2h13.9c.4 0 .7.1 1 .4.1.2.2.3.2.5-.1 1-.1 2.1-.1 3.2zM3.7 4.4c.7-.1.7-.1.9.4 0 .1.1.1.1.2.3.6.4.6 1 .4-.2-.4-.5-.8-.7-1.2l.1-.1c.3-.2.5-.5.4-.9s-.3-.6-.7-.6c-.5 0-1.1 0-1.6-.1-.1 0-.2 0-.3.1.2 1 .1 1.9 0 2.8.3.1.6.1.8 0 .1-.3.1-.7 0-1zM9.1 4c.1-.9-.7-1.5-1.5-1.5-.9 0-1.5.6-1.5 1.5s.7 1.6 1.5 1.6c.8-.1 1.5-.7 1.5-1.6zm5.7 1.3c.2.1.4.1.6.2.4.1.8.1 1.1-.1.4-.2.6-.5.6-.9s-.2-.6-.6-.8c-.1 0-.2-.1-.3-.1-.1 0-.3-.1-.4-.1-.2-.1-.2-.2-.2-.4.4-.3.9 0 1.4.1v-.6c-.5-.2-1-.3-1.4-.1s-.7.5-.6.8c0 .4.2.6.7.7.2.1.4.1.7.2.1 0 .3.1.3.3s-.1.3-.2.4c-.2.1-.5.1-.7 0l-.6-.3c-.4.3-.4.5-.4.7zm-4.5-.4c0-.8-.1-1.6.1-2.3-.3 0-.6-.1-.9 0 .1 1 .1 1.9 0 2.9h1.8c.2 0 .3-.1.3-.3v-.5c-.4.3-.8.2-1.3.2zM13 2.5h-.9c0 .5.1 1 .1 1.5s-.1 1-.1 1.5h1.7c.3 0 .4-.1.4-.4v-.3c-.5.2-.9.2-1.3.1 0-.8-.1-1.6.1-2.4zm130.3 10.3c.2.3.3.6.6.9-.2-.1-.3-.1-.4-.2-.1-.2-.2-.4-.4-.6-.1-.2-.3-.3-.5-.2 0 .3-.1.6-.1.9-.2-.3-.2-1-.1-2.1h.9c.3 0 .5.2.5.4 0 .3 0 .5-.3.6-.1.2-.2.2-.2.3zm-.7-.3h.5c.3 0 .4-.1.4-.3s-.1-.3-.3-.4h-.6v.7z"/><path class="st0" d="M5.6 15.8V9.2H6c.9 0 1.8 0 2.7.1 1.2.1 2.4.9 2.5 2.3.1 1.2-.3 2.3-1.2 3-.9.7-1.9.9-2.9 1.1-.5.1-1 .1-1.5.1zm.5-5.7c0 .1 0 .1.1.2.7.5.8 1.1.8 1.9v3.3c.6-.1 1.2-.2 1.8-.5v-3.7h1.9c-.3-.8-.6-1.1-1.3-1.1H6.9c-.2-.1-.5-.1-.8-.1zM3.7 28.7v-.6h.8c.2 0 .3.1.3.3 0 .2-.1.3-.3.4-.3 0-.5 0-.8-.1zm4.4.3c0 .7-.4 1-1 .8-.3-.1-.4-.2-.5-.5v-.6c.1-.5.3-.6.8-.6.4 0 .6.3.7.7v.2zM3.8 3.8v-.7h.8c.2 0 .3.1.3.3s-.1.3-.3.3c-.3.1-.5.1-.8.1zm3 .1c0-.5.3-.8.9-.8.4 0 .6.2.7.6 0 .2.1.4 0 .6-.1.5-.4.7-.9.7s-.7-.3-.7-.8v-.3z"/></g></svg>