<svg id="Warstwa_1" xmlns="http://www.w3.org/2000/svg" width="41.5" height="49.7"><style>.st0{fill:#fff}</style><g id="Layer_1"><path class="st0" d="M41.4 17.9v11.7c0 2.2-.4 4.3-1.2 6.3-1.2 2.8-3 5-5.5 6.7-1.2.8-2.5 1.5-3.8 2.2-3.3 1.7-6.7 3.3-10 4.8-.1.1-.2.1-.3 0-2.9-1.3-5.8-2.6-8.6-4.1-1.4-.7-2.9-1.5-4.2-2.3-.9-.6-1.8-1.2-2.6-1.9-2-1.8-3.4-3.9-4.3-6.5-.4-1.2-.6-2.4-.8-3.6C0 30.5 0 29.8 0 29V4.8c0-.1 0-.2.1-.2.8-.4 1.5-.8 2.3-1.1 2.3-1 4.8-1.8 7.3-2.3 1.2-.3 2.5-.5 3.7-.7.9-.1 1.8-.2 2.8-.3 2.2-.2 4.3-.2 6.5-.2 1 0 2.1.1 3.1.2 1.2.1 2.4.2 3.6.4 3.5.6 6.9 1.5 10.1 3l1.8.9c.2.1.2.1.2.3v12.4c-.1.4-.1.5-.1.7zm-1.9.1V5.5c0-.2 0-.2-.2-.2-.8-.1-1.6-.1-2.4-.2-1.2-.1-2.4-.1-3.6-.2h-3.9c-1 0-2 .1-3.1.2s-2.1.2-3.2.4c-1.4.2-2.8.5-4.2.8-3.6.9-7.1 2.2-10.3 4-2.5 1.4-4.7 3-6.8 4.9-.1.1-.1.2-.1.3v14.1c0 1.2.1 2.4.4 3.6.6 2.7 2 5 4 6.8.8.7 1.7 1.3 2.6 1.8 1.7 1 3.4 1.9 5.2 2.8 2.1 1.1 4.3 2.1 6.5 3 .1 0 .2.1.3 0 3.1-1.4 6.1-2.8 9.1-4.4 1.2-.7 2.5-1.3 3.6-2.1 1.6-1.1 2.9-2.4 3.9-4 1.3-2.1 1.9-4.4 2-6.9v-1.8c.2-3.4.2-6.9.2-10.4z"/><path class="st0" d="M19.9 33.4v7.3c0 .3 0 .3-.3.3h-3.2c-.1 0-.1 0-.1-.1V17.7c0-.2.1-.3.2-.4.9-.5 1.8-.8 2.8-1 .9-.2 1.7-.2 2.6-.1 2.1.2 3.6 1.1 4.7 2.9.5.9.9 1.9 1 2.9.2 1.2.3 2.5.2 3.7-.1 1.5-.4 2.9-1 4.2-.5 1-1.1 1.9-2 2.6-.8.6-1.7.9-2.7 1-.7.1-1.4 0-2.2-.1.1 0 0 0 0 0zm0-8.5v5.4c0 .2 0 .2.2.2.4.1.7.2 1.1.2.8 0 1.5-.3 1.9-1 .4-.5.6-1.2.8-1.8.2-.7.2-1.5.3-2.2.1-1.2 0-2.5-.2-3.7-.1-.6-.3-1.2-.6-1.7-.3-.6-.8-1-1.4-1.1-.6-.1-1.2-.1-1.8.1-.2.1-.2.1-.2.3-.1 1.7-.1 3.5-.1 5.3zm-5.5-.5V32c0 .2-.1.3-.2.4-.9.6-1.9.9-3 1.1-.9.2-1.9.2-2.8.2-.7 0-1.5-.2-2.1-.5-1.2-.5-1.9-1.5-2.3-2.7-.2-.6-.3-1.2-.3-1.8V16.8c0-.2 0-.2.2-.2h3.3c.1 0 .1 0 .1.1v11.4c0 .5 0 .9.2 1.3.1.2.2.5.3.7.2.3.6.5 1 .6.7.1 1.3 0 2-.3.1-.1.2-.2.2-.3V16.9c0-.3 0-.3.3-.3h3.2c.2 0 .2 0 .2.2v2.3c-.3 1.7-.3 3.5-.3 5.3zm23.1-3.9c-.1-.1-.2-.2-.3-.2-.7-.6-1.5-1.1-2.5-1.2-.5-.1-1.1-.1-1.6.2-.6.3-1 .8-1 1.5 0 .6.2 1.1.6 1.5.3.3.6.5 1 .7.5.3 1.1.6 1.6.9.7.4 1.3.9 1.8 1.6.6.7.9 1.5 1 2.4.1.8.1 1.6-.2 2.4-.6 1.8-1.8 2.9-3.6 3.3-1.4.3-2.8.1-4.1-.4-.4-.1-.8-.3-1.1-.5-.1 0-.1-.1-.1-.2v-3.2c.1 0 .1.1.2.1.8.6 1.7 1.1 2.7 1.3.5.1 1 .1 1.5-.1.7-.3 1.2-.9 1.2-1.7 0-.7-.2-1.3-.7-1.8-.4-.4-.9-.7-1.4-1-.7-.4-1.4-.9-2.1-1.4-.7-.6-1.2-1.3-1.4-2.2-.3-1-.3-2.1 0-3.1.4-1.3 1.3-2.2 2.5-2.7.9-.4 1.9-.6 2.8-.5 1 .1 1.9.3 2.8.9.2.1.3.2.4.3.1.1 0 .3 0 .5v2.6z"/></g></svg>