<svg id="Warstwa_1" xmlns="http://www.w3.org/2000/svg" width="99.4" height="32.3"><style>.st0{fill:#fff}</style><g id="Layer_1"><path class="st0" d="M99.4 31.6l-7.2.1c-.2 0-.3-.1-.3-.2l-.9-4.2c0-.2-.1-.2-.3-.2h-9.9c-.2 0-.3.1-.3.2L79 31.5c-.1.2-.1.2-.3.2h-8.2c0-.1.1-.2.1-.3 2.9-7 5.9-14.1 8.8-21.1 1-2.4 2-4.9 3.1-7.3.4-1 1.1-1.7 2.1-2.1.7-.2 1.4-.3 2.1-.3h6c.2 0 .2 0 .3.2.2 1.1.5 2.2.7 3.3.9 4.4 1.8 8.8 2.8 13.2.9 4.2 1.7 8.4 2.6 12.5 0 .6.1 1.2.3 1.8zM83 20.7h6.5c.2 0 .2 0 .1-.2-.5-2.5-1-5-1.5-7.4-.3-1.3-.6-2.7-.8-4-1.5 3.8-2.9 7.7-4.3 11.6zM66.3 0c.2.1.4.1.7.1 1.8.2 3.5.5 5.1 1.2.1.1.2.1.2.3-.3 2.1-.7 4.2-1 6.3 0 .1 0 .1-.1.2l-2.1-.9c-2-.6-4.1-.8-6.1-.5-.8.1-1.6.4-2.3 1-1 .9-1 2-.2 3 .6.6 1.4 1.1 2.1 1.5 1.2.7 2.4 1.2 3.6 1.9 1.2.7 2.3 1.6 3.2 2.7 1.3 1.5 1.8 3.3 1.7 5.3-.1 2.2-.9 4.2-2.3 5.9-1.2 1.4-2.7 2.3-4.4 3s-3.6 1-5.4 1.2c-.4 0-.7 0-1.1.1h-1.1c-2.3-.1-4.5-.4-6.7-1-.6-.2-1.1-.4-1.7-.6-.1-.1-.1-.1-.1-.2.4-2.2.7-4.4 1.1-6.6 0-.2.1-.2.3-.1 1 .5 1.9.9 2.9 1.2 2 .7 4.1.9 6.3.8.9-.1 1.8-.3 2.6-.8.7-.4 1.2-.9 1.3-1.7.2-.9-.1-1.6-.7-2.2-.6-.6-1.3-1-2-1.4-1-.6-2.1-1-3.1-1.6-1.5-.9-2.9-1.9-4-3.3s-1.5-3-1.4-4.7c.2-3.2 1.7-5.6 4.4-7.4C57.8 1.5 59.9.8 62.1.4c.6-.1 1.2-.2 1.9-.2h.1c.6-.2 1.4-.2 2.2-.2z"/><path d="M8.5 4.6C7.4 3.9 6.2 3.4 5 2.8c-1.6-.7-3.3-1.2-5-1.7V.9C.1.5.1.5.5.5h12.3c.5 0 1 0 1.4.2 1.4.3 2.2 1.2 2.5 2.6l2.7 13.8v.2c-.2-.4-.4-.9-.6-1.3-1.5-3.3-3.6-6.1-6.3-8.4-1.2-1.1-2.5-2.1-4-3z" fill="#989898"/><path class="st0" d="M8.5 4.6c1.5.8 2.8 1.8 4.1 2.9 2.7 2.3 4.9 5.1 6.3 8.4.2.4.4.9.6 1.3.3 1.3.5 2.6.8 3.8 0 .2.1.4.1.6.1-.1.1-.2.1-.2 2.6-6.9 5.1-13.8 7.7-20.7.1-.2.2-.2.3-.2h8c.3 0 .3 0 .2.3-4.2 10.2-8.3 20.4-12.4 30.6-.1.2-.2.2-.3.2h-8c-.2 0-.3-.1-.3-.2L10 9.8c-.4-1.6-.9-3.3-1.3-4.9-.2-.1-.2-.2-.2-.3zm35.6-4h3.8c.2 0 .2 0 .2.2L46 13.7c-.6 3.9-1.3 7.9-1.9 11.8-.3 2-.7 4-1 6 0 .2-.1.2-.3.2h-7.6c-.2 0-.2 0-.2-.2.4-2.7.9-5.5 1.3-8.2.5-3 1-6 1.5-9.1.5-3 1-6 1.5-9.1.2-1.4.5-2.9.7-4.3 0-.2.1-.2.3-.2h3.8z"/></g></svg>